<?xml version="1.0" encoding="UTF-8"?>
<svg id="_Слой_2" data-name="Слой 2" xmlns="http://www.w3.org/2000/svg" viewBox="0 0 31 38">
  <defs>
    <style>
      .cls-1 {
        fill: #fff;
      }

      .cls-2 {
        fill: #282828;
      }

      .cls-3 {
        fill: #e2b46a;
      }
    </style>
  </defs>
  <g id="marker">
    <g id="marker_icon">
      <path class="cls-1" d="M14.51,37.31c-.93-.65-4.2-3.03-7.37-6.51C2.38,25.59-.02,20.4,0,15.37,0,6.9,6.95,0,15.5,0c4.05,0,7.89,1.55,10.8,4.36,2.73,2.63,4.36,6.1,4.66,9.82h.05v1.2c.02,4.94-2.52,10.32-7.34,15.56-1.85,2.02-3.71,3.64-4.94,4.65-.52.43-.98.78-1.32,1.04l-1.91,1.36-.98-.69Z"/>
      <path class="cls-2" d="M15.49,37.08l-.55-.39c-.91-.64-4.13-2.98-7.25-6.4C3.07,25.23.74,20.21.76,15.37c0-8.06,6.61-14.62,14.74-14.62s14.49,6.32,14.73,14.18h0v.45h0c.02,4.75-2.45,9.96-7.14,15.05-1.83,1.98-3.65,3.58-4.86,4.58-.69.57-1.26,1-1.61,1.26-.1.07-1.14.8-1.14.8Z"/>
      <ellipse class="cls-1" cx="15.5" cy="15.53" rx="6.89" ry="6.86"/>
      <ellipse class="cls-3" cx="15.5" cy="15.53" rx="6.13" ry="6.1"/>
    </g>
  </g>
</svg>