<?xml version="1.0" encoding="UTF-8"?>
<svg id="uuid-fb5abf19-6f1e-4477-afdf-61d5c5ea6bae" data-name="Слой 2" xmlns="http://www.w3.org/2000/svg" viewBox="0 0 300 300">
  <defs>
    <style>
      .uuid-0da0e8d5-5273-4d80-aa49-4f264fcfc584 {
        stroke: #e2b46a;
        stroke-width: 4px;
      }

      .uuid-0da0e8d5-5273-4d80-aa49-4f264fcfc584, .uuid-c2f697ca-dacf-4dd5-bb5d-c04543522992 {
        fill: #282828;
      }

      .uuid-d3b69c88-c1bf-49d0-870a-d036f45986c5 {
        fill: #e2b46a;
      }
    </style>
  </defs>
  <g id="uuid-f18207f5-f6a7-4fe4-9314-12b9b54f5327" data-name="bar-code">
    <g>
      <rect class="uuid-d3b69c88-c1bf-49d0-870a-d036f45986c5" width="300" height="300" rx="20" ry="20"/>
      <g>
        <path class="uuid-c2f697ca-dacf-4dd5-bb5d-c04543522992" d="M53.25,53.25h32.25v32.25h-32.25v-32.25Z"/>
        <path class="uuid-c2f697ca-dacf-4dd5-bb5d-c04543522992" d="M117.75,21v96.75H21V21h96.75ZM101.62,37.12H37.12v64.5h64.5V37.12ZM85.5,214.5h-32.25v32.25h32.25v-32.25Z"/>
        <path class="uuid-c2f697ca-dacf-4dd5-bb5d-c04543522992" d="M117.75,182.25v96.75H21v-96.75h96.75ZM37.12,198.38v64.5h64.5v-64.5H37.12ZM214.5,53.25h32.25v32.25h-32.25v-32.25Z"/>
        <path class="uuid-c2f697ca-dacf-4dd5-bb5d-c04543522992" d="M182.25,21v96.75h96.75V21h-96.75ZM262.88,37.12v64.5h-64.5V37.12h64.5ZM150,37.12v-16.12h16.12v32.25h-16.12v32.25h-16.12v-48.38h16.12ZM150,117.75v-32.25h16.12v32.25h-16.12ZM117.75,150v-16.12h16.12v-16.12h16.12v32.25h16.12v-16.12h80.62v16.12h-64.5v16.12h-48.38v-16.12h-16.12ZM117.75,150v16.12H53.25v-16.12h-16.12v16.12h-16.12v-32.25h48.38v16.12h48.38ZM279,166.12h-16.12v-32.25h16.12v32.25ZM262.88,166.12h-16.12v32.25h32.25v-16.12h-16.12v-16.12ZM198.38,166.12h32.25v16.12h-16.12v16.12h-16.12v-32.25ZM230.62,214.5v-16.12h-16.12v16.12h-16.12v16.12h-32.25v16.12h48.38v-32.25h16.12ZM230.62,214.5h48.38v16.12h-32.25v16.12h-16.12v-32.25ZM166.12,198.38v16.12h16.12v-32.25h-48.38v16.12h32.25Z"/>
        <path class="uuid-c2f697ca-dacf-4dd5-bb5d-c04543522992" d="M133.88,214.5h16.12v48.38h64.5v16.12h-80.62v-64.5ZM279,246.75v32.25h-48.38v-16.12h32.25v-16.12h16.12Z"/>
        <g>
          <path class="uuid-0da0e8d5-5273-4d80-aa49-4f264fcfc584" d="M120.87,120.86h0c-7.6,7.6-11.86,17.9-11.86,28.64l11.87-28.64ZM120.87,120.86c7.59-7.59,17.9-11.86,28.63-11.86s21.05,4.27,28.63,11.86h0c7.59,7.59,11.87,17.9,11.87,28.64s-4.27,21.04-11.87,28.64h0c-7.59,7.59-17.9,11.86-28.63,11.86s-21.05-4.27-28.63-11.86h0M120.87,120.86v57.28M120.86,178.14c-7.59-7.59-11.86-17.9-11.86-28.64l11.86,28.64Z"/>
          <circle class="uuid-c2f697ca-dacf-4dd5-bb5d-c04543522992" cx="149.2" cy="149" r="39"/>
          <path class="uuid-d3b69c88-c1bf-49d0-870a-d036f45986c5" d="M126.24,149.05c12.39-5.4,20.65-8.96,24.78-10.67,11.81-4.91,14.26-5.76,15.86-5.79.35,0,1.14.08,1.65.49.43.35.55.82.61,1.15.05.33.13,1.08.07,1.67-.64,6.72-3.41,23.03-4.81,30.56-.59,3.18-1.77,4.25-2.9,4.36-2.47.23-4.34-1.63-6.73-3.2-3.74-2.45-5.85-3.98-9.48-6.37-4.2-2.76-1.47-4.28.92-6.77.62-.65,11.5-10.54,11.71-11.44.03-.11.05-.53-.2-.75-.25-.22-.61-.15-.88-.09-.38.08-6.35,4.04-17.93,11.85-1.69,1.16-3.23,1.73-4.61,1.7-1.51-.03-4.44-.86-6.61-1.56-2.66-.87-4.78-1.32-4.59-2.79.09-.76,1.15-1.55,3.16-2.35Z"/>
        </g>
      </g>
    </g>
  </g>
</svg>