<svg width="55" height="55" viewBox="0 0 55 55" fill="none" xmlns="http://www.w3.org/2000/svg">
<path d="M52.864 32.8922C52.5624 34.5876 52.4419 35.7381 52.0803 37.4335C51.8994 38.4023 51.4773 39.3107 51.1157 40.2796C47.5585 47.2428 42.2532 50.9971 34.9585 51.0576C33.9938 51.0576 33.0896 50.8759 32.0646 50.8154C32.1853 50.331 32.2455 49.9677 32.366 49.6043C37.551 50.5127 42.2532 49.3016 46.4132 45.5474C50.573 41.7933 52.5626 36.9491 52.7435 31.3179C52.8037 31.6812 52.864 31.984 52.864 32.4684V32.8922Z" fill="white"/>
<path d="M42.1332 47.6058C40.5657 47.848 39.8424 46.9397 40.4452 45.2444C40.6261 44.6993 40.8672 44.1545 41.0481 43.7305C41.3495 44.2149 41.6509 44.6389 41.9523 45.0627C42.4347 45.7892 42.6155 46.637 42.1332 47.6058Z" fill="white"/>
<path d="M38.9357 48.4539C37.1873 48.7566 36.4638 47.7272 37.127 45.8501C37.3079 45.2446 37.6093 44.6391 37.7902 44.2153C38.152 44.7602 38.4534 45.2446 38.7548 45.6684C39.2973 46.5162 39.4782 47.3638 38.9357 48.4539Z" fill="white"/>
<path d="M43.8186 42.0352C44.1804 42.6406 44.4214 43.0646 44.7229 43.4278C45.3259 44.215 45.4464 45.0628 45.0243 46.0316C43.3966 46.3343 42.7334 45.4261 43.2761 43.6701C43.457 43.1251 43.6377 42.5802 43.8186 42.0352Z" fill="white"/>
<path d="M46.5325 40.0972C46.7736 40.4605 47.0148 40.8843 47.2559 41.2477C47.7382 41.9138 47.9191 42.6403 47.4368 43.5486C46.7736 43.8513 46.2311 43.7909 45.8693 43.0643C45.5679 42.3376 45.9297 40.8239 46.5325 40.0972Z" fill="white"/>
<path d="M49.9723 40.2189C49.068 40.5823 48.4651 40.6427 48.2239 39.8556C47.9225 38.8261 48.2842 37.8574 48.8267 36.9492C49.1283 37.4941 49.4899 37.9785 49.7312 38.584C49.9119 39.129 49.9119 39.6739 49.9723 40.2189Z" fill="white"/>
<path d="M52.9816 36.5857C52.4993 34.8296 54.4285 34.8296 54.7901 33.7397C55.1519 34.5269 55.0314 36.0406 54.4887 36.5857C54.0066 37.1305 53.8255 37.1305 52.9816 36.5857Z" fill="white"/>
<path d="M51.419 36.7068C50.9968 36.7068 50.394 37.1308 50.0324 36.3435C49.5501 35.2538 50.0926 34.3454 50.5147 33.1948C50.8161 34.527 52.3233 35.1325 51.419 36.7068Z" fill="white"/>
<path d="M54.1865 26.6553C54.5483 27.5635 55.0306 28.3507 54.4277 29.1378C54.1865 29.4406 53.7042 29.5012 53.4027 29.6829C52.5586 28.3507 53.7645 27.6846 54.1865 26.6553Z" fill="white"/>
<path d="M52.6796 23.3857C52.9811 24.0518 53.3429 24.5967 53.4634 25.2022C53.5236 25.5049 53.3427 25.9893 53.1016 26.2921C52.9809 26.4131 52.4384 26.4738 52.378 26.3527C52.1973 25.9893 52.0164 25.5655 52.0766 25.2022C52.137 24.6571 52.4384 24.1727 52.6796 23.3857Z" fill="white"/>
<path d="M53.0438 32.3469C53.1643 31.1963 54.1891 30.833 54.9127 30.1064C55.0332 31.0147 55.0934 31.8018 54.4304 32.5284C53.8273 33.1945 53.4054 32.6496 53.0438 32.3469Z" fill="white"/>
<path d="M50.1488 26.5952C50.7517 27.3219 52.0177 27.3824 51.7767 28.8961C51.475 28.8961 51.0531 29.0778 50.7517 28.9567C50.1488 28.654 50.0283 28.1091 50.1488 26.5952Z" fill="white"/>
<path d="M51.1131 29.7432C51.5351 30.4699 51.8365 30.8937 52.0174 31.3781C52.1379 31.7415 52.0778 32.1653 52.0174 32.5286C51.957 32.6497 51.4747 32.8314 51.2938 32.7708C51.0528 32.5891 50.7513 32.2259 50.7513 31.9232C50.7513 31.2571 50.9926 30.591 51.1131 29.7432Z" fill="white"/>
<path d="M50.8131 21.2056C51.0542 21.5689 51.3556 21.9323 51.4761 22.2955C51.5365 22.5378 51.3556 22.8405 51.2351 23.1433C50.994 23.022 50.6322 22.9009 50.5719 22.6588C50.5117 22.4167 50.5117 22.3561 50.5719 21.7506C50.6926 21.6294 50.7528 21.3266 50.8131 21.2056Z" fill="white"/>
<path d="M49.5502 23.3857C50.0927 23.7489 50.4544 23.9306 50.7559 24.2333C50.9368 24.4756 50.9969 24.8388 51.0573 25.1416C51.0573 25.2628 50.6955 25.5655 50.575 25.5049C50.2736 25.4445 49.9721 25.2628 49.8516 25.0205C49.6707 24.5967 49.6707 24.1123 49.5502 23.3857Z" fill="white"/>
<path d="M36.8894 51.4814C36.8894 51.4814 36.9498 53.1162 37.9144 54.2667C38.5776 55.1145 39.7229 55.1145 40.7479 54.5088C41.7729 53.9034 42.3154 53.0558 42.3154 53.0558C42.3154 53.0558 40.8685 52.0869 39.6024 52.208C38.5173 52.3897 36.8894 51.4814 36.8894 51.4814Z" fill="white"/>
<path d="M43.2762 49.9076C43.2762 49.9076 43.6982 51.3002 44.9039 52.148C45.6876 52.6931 46.7126 52.4508 47.4964 51.6638C48.2801 50.8766 48.5212 50.0288 48.5212 50.0288C48.5212 50.0288 47.0141 49.4838 45.9289 49.9682C44.9643 50.3316 43.2762 49.9076 43.2762 49.9076Z" fill="white"/>
<path d="M47.3778 47.1218C47.3778 47.1218 47.8601 48.0907 48.8246 48.5751C49.4878 48.8779 50.2112 48.5751 50.6937 47.8484C51.1758 47.1823 51.2362 46.5162 51.2362 46.5162C51.2362 46.5162 50.0906 46.3347 49.3069 46.7585C48.6437 47.2429 47.3778 47.1218 47.3778 47.1218Z" fill="white"/>
<path d="M49.6094 44.3367C49.6094 44.3367 50.3931 45.1237 51.4181 45.3055C52.1415 45.4266 52.7445 44.8815 52.9856 44.0944C53.2267 43.3072 53.1061 42.6411 53.1061 42.6411C53.1061 42.6411 51.9004 42.8228 51.3579 43.4283C50.8754 44.0339 49.6094 44.3367 49.6094 44.3367Z" fill="white"/>
<path d="M51.958 40.0976C51.958 40.0976 52.6212 40.7033 53.5255 40.7638C54.1285 40.8244 54.5505 40.34 54.7314 39.6739C54.9121 39.0079 54.7314 38.4629 54.7314 38.4629C54.7314 38.4629 53.7668 38.705 53.3448 39.2501C52.983 39.7949 51.958 40.0976 51.958 40.0976Z" fill="white"/>
<path d="M2.22168 32.8922C2.5233 34.5876 2.64383 35.7381 3.00542 37.4335C3.24668 38.4023 3.60827 39.3107 3.97006 40.2796C7.58735 47.2428 12.953 50.9971 20.3685 51.0576C21.3329 51.0576 22.2976 50.8759 23.3226 50.8154C23.2019 50.331 23.1417 49.9677 23.0212 49.6043C17.776 50.5127 13.0132 49.3016 8.79305 45.5474C4.57291 41.7933 2.58347 36.9491 2.34221 31.3179C2.28185 31.6812 2.22168 31.984 2.22168 32.4684V32.8922Z" fill="white"/>
<path d="M13.1363 47.6054C14.764 47.8475 15.4272 46.9393 14.8845 45.2439C14.7038 44.6988 14.4625 44.154 14.2817 43.73C13.9802 44.2144 13.6788 44.6384 13.3774 45.0622C12.8349 45.7887 12.654 46.6365 13.1363 47.6054Z" fill="white"/>
<path d="M16.393 48.4539C18.1413 48.7566 18.8649 47.7272 18.2619 45.8501C18.0812 45.2446 17.7797 44.6391 17.5988 44.2153C17.2371 44.7602 16.9356 45.2446 16.6342 45.6684C16.0312 46.5162 15.8503 47.3638 16.393 48.4539Z" fill="white"/>
<path d="M11.4461 42.0352C11.0843 42.6406 10.843 43.0646 10.5416 43.4278C9.93874 44.215 9.81821 45.0628 10.2402 46.0316C11.868 46.3343 12.5914 45.4261 11.9885 43.6701C11.8077 43.1251 11.6268 42.5802 11.4461 42.0352Z" fill="white"/>
<path d="M8.67348 40.0972C8.43241 40.4605 8.19116 40.8843 7.9501 41.2477C7.46778 41.9138 7.28688 42.6403 7.7692 43.5486C8.43241 43.8513 8.9749 43.7909 9.33669 43.0643C9.69848 42.3376 9.27633 40.8239 8.67348 40.0972Z" fill="white"/>
<path d="M5.18066 40.2184C6.08494 40.5818 6.74815 40.6422 6.92885 39.8551C7.23028 38.8256 6.86868 37.857 6.326 36.9487C6.02458 37.4936 5.66279 37.978 5.42173 38.5835C5.3012 39.1285 5.24083 39.6734 5.18066 40.2184Z" fill="white"/>
<path d="M2.10211 36.5857C2.58443 34.8296 0.655158 34.8296 0.233201 33.7397C-0.188947 34.5269 -0.00786281 36.0406 0.534626 36.5857C1.07731 37.1305 1.2582 37.1305 2.10211 36.5857Z" fill="white"/>
<path d="M3.72793 36.7068C4.21025 36.7068 4.75293 37.1308 5.11453 36.3435C5.59684 35.2538 5.05416 34.3454 4.63221 33.1948C4.33078 34.527 2.7633 35.1325 3.72793 36.7068Z" fill="white"/>
<path d="M0.898329 26.6553C0.536542 27.5635 0.0542239 28.3507 0.657074 29.1378C0.898329 29.4406 1.38065 29.5012 1.68207 29.6829C2.52618 28.3507 1.32029 27.6846 0.898329 26.6553Z" fill="white"/>
<path d="M2.46484 23.3857C2.16342 24.0518 1.80163 24.5967 1.62074 25.2022C1.56057 25.5049 1.80163 25.9893 1.98253 26.2921C2.10306 26.4131 2.64574 26.4738 2.7061 26.3527C2.8868 25.9893 3.06769 25.5655 3.00752 25.2022C3.00733 24.6571 2.70591 24.1727 2.46484 23.3857Z" fill="white"/>
<path d="M2.10119 32.3464C1.98065 31.1959 0.955655 30.8325 0.232273 30.106C0.111742 31.0142 0.0513801 31.8013 0.714592 32.5279C1.25727 33.194 1.67923 32.6491 2.10119 32.3464Z" fill="white"/>
<path d="M4.99699 26.5947C4.39414 27.3215 3.06771 27.3819 3.36914 28.8956C3.67056 28.8956 4.09271 29.0773 4.39414 28.9562C4.99699 28.6535 5.11752 28.1086 4.99699 26.5947Z" fill="white"/>
<path d="M4.03061 29.7432C3.60847 30.4699 3.30704 30.8937 3.12634 31.3781C3.00562 31.7415 3.06598 32.1653 3.12634 32.5286C3.18651 32.6497 3.66883 32.8314 3.84972 32.7708C4.09098 32.5891 4.45257 32.2259 4.3924 31.9232C4.3924 31.2571 4.15115 30.591 4.03061 29.7432Z" fill="white"/>
<path d="M4.33243 21.2056C4.09136 21.5689 3.78994 21.9323 3.66922 22.2955C3.60886 22.5378 3.78994 22.8405 3.91047 23.1433C4.15153 23.022 4.57349 22.9009 4.63385 22.6588C4.69421 22.4167 4.69421 22.3561 4.63385 21.7506C4.45296 21.6294 4.39279 21.3266 4.33243 21.2056Z" fill="white"/>
<path d="M5.59892 23.3857C5.05643 23.7489 4.69465 23.9306 4.39322 24.2333C4.21233 24.4756 4.15197 24.8388 4.0918 25.1416C4.0918 25.2628 4.45339 25.5655 4.57392 25.5049C4.87535 25.4445 5.23714 25.2628 5.2975 25.0205C5.53856 24.5967 5.53856 24.1123 5.59892 23.3857Z" fill="white"/>
<path d="M18.4404 51.481C18.4404 51.481 18.3801 53.1157 17.4154 54.2662C16.7524 55.114 15.5465 55.114 14.5217 54.5084C13.4967 53.9029 12.9542 53.0553 12.9542 53.0553C12.9542 53.0553 14.4012 52.0864 15.6672 52.2075C16.8126 52.3892 18.4404 51.481 18.4404 51.481Z" fill="white"/>
<path d="M12.6509 49.9071C12.6509 49.9071 12.2288 51.2997 11.0231 52.1475C10.1792 52.6926 9.15419 52.4503 8.37045 51.6633C7.5867 50.8761 7.28528 50.0283 7.28528 50.0283C7.28528 50.0283 8.7926 49.4833 9.93793 49.9677C10.9629 50.2705 12.6509 49.9071 12.6509 49.9071Z" fill="white"/>
<path d="M7.82827 47.1214C7.82827 47.1214 7.28559 48.0902 6.38132 48.5746C5.71811 48.8774 4.99472 48.5746 4.51241 47.8479C4.03009 47.1818 3.96973 46.5157 3.96973 46.5157C3.96973 46.5157 5.17562 46.3342 5.899 46.758C6.56221 47.2424 7.82827 47.1214 7.82827 47.1214Z" fill="white"/>
<path d="M5.53859 44.3362C5.53859 44.3362 4.75503 45.1232 3.73004 45.305C3.00646 45.4261 2.40361 44.8811 2.16255 44.0939C1.9213 43.3067 2.04183 42.6406 2.04183 42.6406C2.04183 42.6406 3.24772 42.8223 3.85057 43.4278C4.27253 44.0335 5.53859 44.3362 5.53859 44.3362Z" fill="white"/>
<path d="M3.18562 40.0972C3.18562 40.0972 2.46223 40.7028 1.61813 40.7633C1.01528 40.8239 0.53296 40.3395 0.412428 39.6734C0.231535 39.0074 0.412428 38.4624 0.412428 38.4624C0.412428 38.4624 1.37706 38.7045 1.85938 39.2496C2.16081 39.7944 3.18562 40.0972 3.18562 40.0972Z" fill="white"/>
<path d="M47.4382 8.43001C47.3778 6.79506 46.8353 6.18958 45.3884 5.8264C39.5404 4.25208 33.6322 3.70703 27.6637 3.70703C26.8198 3.70703 26.0358 3.70703 25.1919 3.76766C19.7659 3.94934 14.34 4.43376 9.0951 6.12914C8.37153 6.37126 7.76868 6.55294 7.76868 7.52179C7.88921 10.9732 7.70832 14.4246 8.0701 17.8155C8.37153 20.7219 8.85385 23.4467 9.63759 26.0505C12.5313 35.9203 18.8014 43.7919 27.5432 50.1498L27.6033 50.0892C34.2954 45.3662 39.6611 39.4323 43.218 31.9845C44.1827 30.0468 44.906 28.0486 45.5089 26.0505C47.2573 20.3587 47.6794 14.4246 47.4382 8.43001Z" fill="#282828"/>
<path d="M27.6606 26.0503V50.089C34.3527 45.366 39.7182 39.4321 43.2753 31.9842C44.24 30.0465 44.9634 28.0484 45.5662 26.0503H27.6606Z" fill="#333130"/>
<path d="M9.63306 26.0503C12.5268 35.92 18.7969 43.7917 27.5386 50.1496L27.5988 50.089V26.0503H9.63306Z" fill="#10100F"/>
<path d="M47.4273 8.42952C47.3669 6.79457 46.8245 6.18909 45.3775 5.82592C39.5295 4.25159 33.6214 3.70654 27.6528 3.70654V26.05H45.5584C47.2464 20.3582 47.6686 14.4847 47.4273 8.42952Z" fill="#3F3C3A"/>
<path d="M25.1833 3.76717C19.7572 3.94885 14.3314 4.43327 9.08643 6.12866C8.36286 6.37077 7.76001 6.55245 7.76001 7.5213C7.88054 10.9727 7.69965 14.4241 8.06143 17.815C8.36286 20.7214 8.84518 23.4462 9.62892 26.05H27.5947V3.70654C26.8111 3.70654 25.967 3.70654 25.1833 3.76717Z" fill="#282828"/>
<path d="M27.5416 53.8429C18.4381 47.8483 11.505 40.0978 7.64663 29.804C4.69255 21.9324 4.2704 13.758 4.87325 5.52306C4.93361 4.97801 5.53646 4.13041 6.01878 4.00916C10.1788 2.55609 13.2534 1.76873 16.9912 1.2845C25.7933 0.133975 34.5953 0.315657 43.2769 2.1321C45.3267 2.55609 47.3161 3.34325 49.3058 4.06979C49.7277 4.25147 50.2704 4.79652 50.2704 5.22032C50.8129 14.3635 50.3909 23.3857 46.6531 31.9838C42.9754 40.461 34.9571 49.7252 27.5416 53.8429ZM26.577 2.67715C24.9492 2.73758 22.176 2.67715 19.4631 3.10094C15.665 3.64599 12.0477 4.19085 8.06859 5.34137C7.28504 5.52306 6.74236 5.88642 6.80253 6.9157C7.04378 11.5176 6.80253 16.18 7.46574 20.7819C9.39501 33.7399 16.5091 43.4281 26.9388 50.8758C27.2402 51.1181 27.9638 51.1181 28.2652 50.8758C33.5705 47.0612 38.1525 42.5197 41.649 36.9491C47.3161 27.927 48.944 17.9966 48.3411 7.52118C48.2808 6.18897 47.7984 5.52306 46.5324 5.15969C40.4433 3.222 34.113 2.7982 26.577 2.67715Z" fill="#E2B46A"/>
<path d="M26.5772 2.67676C34.1132 2.79782 40.4435 3.22161 46.5929 5.1593C47.9192 5.58329 48.3411 6.18877 48.4015 7.52079C49.0043 17.996 47.3765 27.9264 41.7096 36.9487C38.2128 42.5193 33.6309 47.0608 28.3256 50.8754C28.0242 51.1177 27.3006 51.057 26.9992 50.8754C16.5694 43.4275 9.39522 33.7395 7.52631 20.7815C6.8631 16.2402 7.10416 11.5777 6.8631 6.91531C6.80274 5.88584 7.34523 5.46204 8.12916 5.34099C11.9272 4.55382 15.7253 3.6456 19.5235 3.10056C22.1762 2.67676 24.9494 2.73719 26.5772 2.67676ZM27.5419 50.1488C34.2941 45.3652 39.6598 39.4917 43.2771 31.9835C46.8944 24.5356 47.7385 16.6034 47.4369 8.42901C47.3767 6.79406 46.834 6.18858 45.3872 5.82541C38.7555 4.00878 32.0032 3.58498 25.1906 3.76666C19.7648 3.94834 14.3387 4.43277 9.0938 6.12815C8.37023 6.37026 7.76737 6.55195 7.76737 7.52079C7.8881 10.9722 7.7072 14.4236 8.0688 17.8145C9.39522 31.6201 16.4489 42.0955 27.5419 50.1488Z" fill="#F3F3F3"/>
<path d="M18.979 22.5387C18.2555 22.7202 17.5925 22.7202 16.9292 22.5387C15.2412 22.0543 14.1559 20.3587 14.3971 18.6029C14.6382 16.8469 16.1453 15.5146 17.8937 15.5146C24.4049 15.5146 30.9159 15.5146 37.4271 15.5146C39.2356 15.5146 40.8031 16.9073 40.984 18.6633C41.1649 20.601 39.8989 22.2964 38.0299 22.5387C37.4873 22.5991 36.9448 22.5387 36.4021 22.5387C36.4021 26.4139 36.4021 30.3497 36.4021 34.2855C36.0403 34.2855 35.7389 34.2855 35.4375 34.2855C35.4375 34.1644 35.4375 34.0434 35.4375 33.9828C35.4375 30.1076 35.4375 26.1718 35.4375 22.2964C35.4375 22.1149 35.3771 21.9936 35.2566 21.8726C34.2318 21.0248 33.7494 19.8745 33.9905 18.5422C33.9905 18.4816 33.9905 18.4212 33.9905 18.4212C33.9905 18.3606 33.9905 18.3606 33.9905 18.2999C29.8307 18.2999 25.6106 18.2999 21.3904 18.2999C21.3904 18.4816 21.4506 18.6027 21.4506 18.7844C21.5713 20.0559 21.089 21.1458 20.1244 21.933C19.9435 22.0543 19.8831 22.1753 19.8831 22.4174C19.8831 26.3532 19.8831 30.2284 19.8831 34.1642C19.8831 34.2249 19.8831 34.3459 19.8831 34.467C19.5817 34.467 19.2803 34.467 18.9185 34.467C18.979 30.4709 18.979 26.5349 18.979 22.5387ZM19.823 17.3313C25.0681 17.3313 30.2529 17.3313 35.4978 17.3313C35.4377 17.3919 35.3773 17.4523 35.3773 17.513C34.895 18.1791 34.7141 18.845 34.895 19.6928C35.0759 20.7222 35.9801 21.5092 37.0051 21.7515C38.0299 21.9332 39.1151 21.4488 39.6578 20.5406C40.2003 19.6321 40.1399 18.4818 39.5371 17.634C38.9342 16.8469 38.0903 16.5441 37.1257 16.5441C30.8557 16.5441 24.5858 16.5441 18.3158 16.5441C18.0746 16.5441 17.8335 16.5441 17.5923 16.5441C16.3866 16.6654 15.4219 17.6946 15.3616 18.845C15.241 20.1166 16.0248 21.2065 17.2305 21.5698C18.376 21.9332 19.6421 21.3882 20.2449 20.3589C20.7876 19.3294 20.6067 18.3001 19.823 17.3313Z" fill="#E2B46A"/>
<path d="M27.7207 13.0929C31.5791 13.0929 35.4376 13.0929 39.296 13.0929C39.8988 13.0929 40.321 13.4562 40.3812 13.9404C40.4415 14.5461 40.0194 14.9699 39.4165 14.9699C38.6931 14.9699 37.9698 14.9699 37.2462 14.9699C30.2529 14.9699 23.2593 14.9699 16.3264 14.9699C16.2057 14.9699 16.0851 14.9699 16.0248 14.9699C15.4823 14.9093 15.1205 14.5461 15.1205 14.0011C15.1205 13.4562 15.4823 13.0929 16.0248 13.0322C16.1455 13.0322 16.266 13.0322 16.3865 13.0322C20.1244 13.0929 23.9226 13.0929 27.7207 13.0929Z" fill="#E2B46A"/>
<path d="M22.2913 34.4068C21.9297 34.4068 21.6884 34.4068 21.3267 34.4068C21.3267 34.2856 21.3267 34.1645 21.3267 34.0434C21.3267 30.1076 21.3267 26.1718 21.3267 22.236C21.3267 21.3276 21.5679 21.0249 22.4722 20.8434C22.9545 20.7221 23.4972 20.7827 23.9795 20.9644C24.522 21.2065 24.7029 21.4488 24.7029 22.0543C24.7029 25.203 24.7029 28.3516 24.7029 31.5003C24.7029 32.3481 24.7029 33.2563 24.7029 34.1039C24.7029 34.1645 24.7029 34.2856 24.7029 34.4068C24.4015 34.4068 24.1 34.4068 23.7383 34.4068C23.7383 34.2856 23.7383 34.1645 23.7383 34.1039C23.7383 30.1681 23.7383 26.1718 23.7383 22.236C23.7383 21.9333 23.6177 21.812 23.3765 21.812C23.2559 21.812 23.1354 21.7514 22.9545 21.7514C22.3517 21.7514 22.2309 21.812 22.2309 22.4175C22.2309 26.2929 22.2309 30.1681 22.2309 34.0434C22.2913 34.1645 22.2913 34.2858 22.2913 34.4068Z" fill="#E2B46A"/>
<path d="M31.5785 34.4068C31.2167 34.4068 30.9757 34.4068 30.6139 34.4068C30.6139 33.9828 30.6139 33.559 30.6139 33.1352C30.6139 29.5022 30.6139 25.9295 30.6139 22.2964C30.6139 21.3882 30.8551 21.0855 31.7594 20.8434C32.3019 20.7221 32.7844 20.7827 33.3269 20.9644C33.7489 21.1461 33.9901 21.4488 33.9901 21.9939C33.9901 26.0508 33.9901 30.047 33.9901 34.1041C33.9901 34.2251 33.9901 34.2858 33.9901 34.4068C33.6887 34.4068 33.3873 34.4068 33.0255 34.4068C33.0255 34.2858 33.0255 34.2251 33.0255 34.1041C33.0255 30.1683 33.0255 26.1718 33.0255 22.236C33.0255 21.9333 32.9651 21.8122 32.6637 21.8122C32.4226 21.8122 32.1212 21.8122 31.88 21.8122C31.6389 21.8122 31.5184 21.9333 31.5184 22.236C31.5184 23.5076 31.5184 24.7792 31.5184 26.0508C31.5184 28.715 31.5184 31.4397 31.5184 34.1039C31.5785 34.1645 31.5785 34.2858 31.5785 34.4068Z" fill="#E2B46A"/>
<path d="M29.3496 34.4067C29.0481 34.4067 28.7467 34.4067 28.3849 34.4067C28.3849 34.2855 28.3849 34.1644 28.3849 34.0434C28.3849 30.7131 28.3849 27.3827 28.3849 23.9918C28.3849 23.3863 28.3849 22.7202 28.3849 22.1147C28.3849 21.8726 28.3246 21.812 28.0835 21.7513C27.9628 21.7513 27.9026 21.6909 27.7821 21.6909C27.1189 21.6303 26.9983 21.7513 26.9983 22.4174C26.9983 26.2928 26.9983 30.168 26.9983 34.0434C26.9983 34.1644 26.9983 34.2249 26.9983 34.3461C26.6969 34.3461 26.3955 34.3461 26.0337 34.3461C26.0337 34.2249 26.0337 34.1644 26.0337 34.0434C26.0337 29.9863 26.0337 25.9901 26.0337 21.9332C26.0337 21.4488 26.2144 21.146 26.6365 20.9644C27.3601 20.6616 28.0231 20.6616 28.7467 20.9644C29.1687 21.1459 29.3496 21.4486 29.3496 21.9332C29.3496 25.9295 29.3496 29.9863 29.3496 33.9828C29.3496 34.1644 29.3496 34.2857 29.3496 34.4067Z" fill="#E2B46A"/>
<path d="M39.2329 19.1477C39.2329 20.177 38.3887 20.9641 37.4241 20.9641C36.3991 20.9641 35.6156 20.1163 35.6757 19.0871C35.6757 18.1182 36.5198 17.3311 37.4845 17.3311C38.4489 17.3311 39.2329 18.1182 39.2329 19.1477ZM37.4241 19.9953C37.9064 19.9953 38.2682 19.6319 38.2682 19.1477C38.2682 18.6633 37.8461 18.2999 37.4241 18.2999C37.0022 18.2999 36.5802 18.6633 36.5802 19.1477C36.58 19.5715 36.9418 19.9953 37.4241 19.9953Z" fill="#E2B46A"/>
<path d="M16.1459 19.0876C16.1459 18.1188 16.99 17.271 17.9546 17.271C18.9193 17.271 19.7632 18.1188 19.703 19.0876C19.703 20.1169 18.8589 20.9041 17.8943 20.9041C16.9298 20.9041 16.1459 20.1169 16.1459 19.0876ZM18.7987 19.1483C18.7987 18.6638 18.3766 18.3005 17.9546 18.3005C17.4725 18.3005 17.1107 18.7243 17.1107 19.2087C17.1107 19.6931 17.4725 20.0565 17.9546 20.0565C18.3766 19.9958 18.7987 19.5721 18.7987 19.1483Z" fill="#E2B46A"/>
</svg>
