<svg width="414" height="63" viewBox="0 0 414 63" fill="none" xmlns="http://www.w3.org/2000/svg">
<path d="M61.2511 37.4588C60.9017 39.4232 60.762 40.7562 60.343 42.7205C60.1335 43.8431 59.6443 44.8956 59.2254 46.0181C55.104 54.086 48.9571 58.4359 40.5051 58.5059C39.3874 58.5059 38.3397 58.2954 37.1521 58.2254C37.292 57.6641 37.3617 57.2431 37.5013 56.8221C43.5088 57.8746 48.9571 56.4713 53.7769 52.1216C58.5966 47.772 60.9019 42.1593 61.1115 35.6348C61.1812 36.0558 61.2511 36.4065 61.2511 36.9678V37.4588Z" fill="white"/>
<path d="M48.8174 54.5068C47.0012 54.7873 46.1631 53.735 46.8616 51.7707C47.0712 51.1391 47.3505 50.5079 47.5601 50.0166C47.9093 50.5779 48.2585 51.0691 48.6078 51.5601C49.1666 52.4019 49.3762 53.3842 48.8174 54.5068Z" fill="white"/>
<path d="M45.1153 55.4891C43.0896 55.8398 42.2513 54.647 43.0197 52.4722C43.2293 51.7707 43.5785 51.0692 43.7881 50.5781C44.2073 51.2094 44.5565 51.7707 44.9058 52.2617C45.5343 53.244 45.7439 54.226 45.1153 55.4891Z" fill="white"/>
<path d="M50.7733 48.0522C51.1924 48.7538 51.4718 49.245 51.821 49.6658C52.5197 50.5778 52.6594 51.5601 52.1702 52.6827C50.2844 53.0334 49.516 51.9811 50.1447 49.9466C50.3543 49.315 50.5637 48.6838 50.7733 48.0522Z" fill="white"/>
<path d="M53.9166 45.8071C54.196 46.2281 54.4755 46.7192 54.7548 47.1402C55.3136 47.9119 55.5232 48.7537 54.9644 49.806C54.1959 50.1568 53.5674 50.0868 53.1482 49.245C52.799 48.403 53.2182 46.6491 53.9166 45.8071Z" fill="white"/>
<path d="M57.8982 45.9476C56.8504 46.3686 56.152 46.4386 55.8724 45.5266C55.5232 44.3338 55.9424 43.2115 56.5709 42.1592C56.9204 42.7905 57.3393 43.3517 57.6189 44.0533C57.8282 44.6848 57.8282 45.3161 57.8982 45.9476Z" fill="white"/>
<path d="M61.3909 41.7383C60.832 39.7037 63.0674 39.7037 63.4863 38.4409C63.9055 39.353 63.7659 41.1068 63.1371 41.7383C62.5785 42.3696 62.3687 42.3696 61.3909 41.7383Z" fill="white"/>
<path d="M59.5746 41.8787C59.0855 41.8787 58.387 42.37 57.9681 41.4577C57.4092 40.1951 58.0378 39.1426 58.5269 37.8096C58.8761 39.3531 60.6223 40.0546 59.5746 41.8787Z" fill="white"/>
<path d="M62.7878 30.2329C63.207 31.2852 63.7658 32.1972 63.0674 33.1093C62.7878 33.46 62.229 33.5303 61.8798 33.7408C60.9017 32.1972 62.2989 31.4255 62.7878 30.2329Z" fill="white"/>
<path d="M61.0415 26.4443C61.3907 27.2161 61.8099 27.8474 61.9495 28.5489C62.0193 28.8997 61.8097 29.461 61.5304 29.8117C61.3905 29.952 60.7619 30.0222 60.692 29.882C60.4826 29.461 60.273 28.9699 60.3428 28.5489C60.4127 27.9174 60.7619 27.3561 61.0415 26.4443Z" fill="white"/>
<path d="M61.4608 36.8273C61.6004 35.4942 62.7878 35.0732 63.6262 34.2314C63.7658 35.2837 63.8355 36.1958 63.0673 37.0376C62.3686 37.8093 61.8797 37.1781 61.4608 36.8273Z" fill="white"/>
<path d="M58.1077 30.1626C58.8062 31.0046 60.2731 31.0746 59.9938 32.8285C59.6444 32.8285 59.1555 33.039 58.8062 32.8987C58.1077 32.5479 57.9681 31.9166 58.1077 30.1626Z" fill="white"/>
<path d="M59.2253 33.8105C59.7142 34.6526 60.0635 35.1436 60.2731 35.7049C60.4127 36.1259 60.343 36.6169 60.2731 37.0379C60.2031 37.1782 59.6443 37.3887 59.4347 37.3184C59.1554 37.1079 58.8062 36.6871 58.8062 36.3364C58.8062 35.5646 59.0857 34.7928 59.2253 33.8105Z" fill="white"/>
<path d="M58.8762 23.9185C59.1555 24.3395 59.5048 24.7605 59.6444 25.1813C59.7144 25.462 59.5048 25.8128 59.3651 26.1635C59.0858 26.0231 58.6667 25.8828 58.5967 25.6023C58.527 25.3217 58.527 25.2515 58.5967 24.55C58.7366 24.4095 58.8063 24.0587 58.8762 23.9185Z" fill="white"/>
<path d="M57.4092 26.4443C58.0377 26.8651 58.4569 27.0756 58.8062 27.4264C59.0157 27.7071 59.0855 28.1279 59.1554 28.4787C59.1554 28.6192 58.7362 28.9699 58.5966 28.8997C58.2473 28.8297 57.8981 28.6192 57.7584 28.3384C57.5488 27.8474 57.5488 27.2861 57.4092 26.4443Z" fill="white"/>
<path d="M42.7402 58.9971C42.7402 58.9971 42.8102 60.8912 43.9278 62.2242C44.6963 63.2065 46.0233 63.2065 47.2109 62.5047C48.3985 61.8032 49.027 60.8211 49.027 60.8211C49.027 60.8211 47.3505 59.6986 45.8836 59.8389C44.6263 60.0494 42.7402 58.9971 42.7402 58.9971Z" fill="white"/>
<path d="M50.1445 57.173C50.1445 57.173 50.6334 58.7865 52.0304 59.7688C52.9385 60.4003 54.1261 60.1196 55.0341 59.2078C55.9422 58.2957 56.2215 57.3134 56.2215 57.3134C56.2215 57.3134 54.4753 56.6819 53.218 57.2432C52.1003 57.6642 50.1445 57.173 50.1445 57.173Z" fill="white"/>
<path d="M54.8945 53.9457C54.8945 53.9457 55.4534 55.0683 56.5708 55.6295C57.3392 55.9803 58.1774 55.6295 58.7364 54.7875C59.295 54.0157 59.365 53.244 59.365 53.244C59.365 53.244 58.0377 53.0337 57.1296 53.5247C56.3612 54.086 54.8945 53.9457 54.8945 53.9457Z" fill="white"/>
<path d="M57.479 50.7185C57.479 50.7185 58.3871 51.6303 59.5747 51.841C60.4128 51.9813 61.1115 51.3497 61.3908 50.4377C61.6701 49.5257 61.5305 48.7539 61.5305 48.7539C61.5305 48.7539 60.1335 48.9644 59.505 49.6659C58.9459 50.3677 57.479 50.7185 57.479 50.7185Z" fill="white"/>
<path d="M60.2031 45.8072C60.2031 45.8072 60.9715 46.5089 62.0193 46.5789C62.718 46.6492 63.2069 46.0879 63.4165 45.3161C63.6258 44.5446 63.4165 43.9131 63.4165 43.9131C63.4165 43.9131 62.2988 44.1936 61.8099 44.8251C61.3907 45.4564 60.2031 45.8072 60.2031 45.8072Z" fill="white"/>
<path d="M2.5752 37.4588C2.92466 39.4232 3.06431 40.7562 3.48327 42.7205C3.7628 43.8431 4.18175 44.8956 4.60093 46.0181C8.79206 54.086 15.0089 58.4359 23.6008 58.5059C24.7182 58.5059 25.8359 58.2954 27.0235 58.2254C26.8836 57.6641 26.8139 57.2431 26.6742 56.8221C20.597 57.8746 15.0786 56.4713 10.189 52.1216C5.29942 47.772 2.99437 42.1593 2.71485 35.6348C2.64491 36.0558 2.5752 36.4065 2.5752 36.9678V37.4588Z" fill="white"/>
<path d="M15.2187 54.5068C17.1045 54.7873 17.8729 53.735 17.2442 51.7707C17.0348 51.1391 16.7553 50.5079 16.5457 50.0166C16.1964 50.5779 15.8472 51.0691 15.498 51.5601C14.8694 52.4019 14.6598 53.3842 15.2187 54.5068Z" fill="white"/>
<path d="M18.9904 55.4891C21.0161 55.8398 21.8545 54.647 21.1558 52.4722C20.9464 51.7707 20.5972 51.0692 20.3876 50.5781C19.9684 51.2094 19.6192 51.7707 19.2699 52.2617C18.5712 53.244 18.3616 54.226 18.9904 55.4891Z" fill="white"/>
<path d="M13.2628 48.0522C12.8436 48.7538 12.5641 49.245 12.2149 49.6658C11.5164 50.5778 11.3767 51.5601 11.8656 52.6827C13.7517 53.0334 14.5898 51.9811 13.8914 49.9466C13.6818 49.315 13.4722 48.6838 13.2628 48.0522Z" fill="white"/>
<path d="M10.0493 45.8071C9.77001 46.2281 9.49049 46.7192 9.21118 47.1402C8.65235 47.9119 8.44276 48.7537 9.00159 49.806C9.77001 50.1568 10.3986 50.0868 10.8177 49.245C11.2369 48.403 10.7478 46.6491 10.0493 45.8071Z" fill="white"/>
<path d="M5.99805 45.9476C7.04577 46.3686 7.81419 46.4386 8.02356 45.5266C8.3728 44.3338 7.95385 43.2115 7.32508 42.1592C6.97584 42.7905 6.55666 43.3517 6.27735 44.0533C6.1377 44.6848 6.06776 45.3161 5.99805 45.9476Z" fill="white"/>
<path d="M2.43558 41.7383C2.99441 39.7037 0.759089 39.7037 0.270195 38.4409C-0.218921 39.353 -0.00911014 41.1068 0.619437 41.7383C1.24821 42.3696 1.45779 42.3696 2.43558 41.7383Z" fill="white"/>
<path d="M4.32178 41.8787C4.88061 41.8787 5.50938 42.37 5.92834 41.4577C6.48717 40.1951 5.8584 39.1426 5.36951 37.8096C5.02027 39.3531 3.20412 40.0546 4.32178 41.8787Z" fill="white"/>
<path d="M1.03861 30.2329C0.619429 31.2852 0.0605975 32.1972 0.759081 33.1093C1.03861 33.46 1.59744 33.5303 1.94668 33.7408C2.92469 32.1972 1.5275 31.4255 1.03861 30.2329Z" fill="white"/>
<path d="M2.85488 26.4443C2.50564 27.2161 2.08646 27.8474 1.87687 28.5489C1.80716 28.8997 2.08646 29.461 2.29605 29.8117C2.4357 29.952 3.06447 30.0222 3.13441 29.882C3.34378 29.461 3.55336 28.9699 3.48365 28.5489C3.48343 27.9174 3.13419 27.3561 2.85488 26.4443Z" fill="white"/>
<path d="M2.4356 36.8273C2.29595 35.4942 1.10835 35.0732 0.270212 34.2314C0.13056 35.2837 0.0606228 36.1958 0.829044 37.0376C1.45781 37.8093 1.94671 37.1781 2.4356 36.8273Z" fill="white"/>
<path d="M5.78856 30.1626C5.09008 31.0046 3.55324 31.0746 3.90248 32.8285C4.25172 32.8285 4.74084 33.039 5.09008 32.8987C5.78856 32.5479 5.92821 31.9166 5.78856 30.1626Z" fill="white"/>
<path d="M4.67096 33.8105C4.18185 34.6526 3.8326 35.1436 3.62324 35.7049C3.48336 36.1259 3.5533 36.6169 3.62324 37.0379C3.69295 37.1782 4.25178 37.3887 4.46137 37.3184C4.7409 37.1079 5.15986 36.6871 5.09014 36.3364C5.09014 35.5646 4.81061 34.7928 4.67096 33.8105Z" fill="white"/>
<path d="M5.02011 23.9185C4.7408 24.3395 4.39156 24.7605 4.25169 25.1813C4.18175 25.462 4.39156 25.8128 4.53121 26.1635C4.81052 26.0231 5.29941 25.8828 5.36935 25.6023C5.43928 25.3217 5.43928 25.2515 5.36935 24.55C5.15976 24.4095 5.09004 24.0587 5.02011 23.9185Z" fill="white"/>
<path d="M6.48718 26.4443C5.85863 26.8651 5.43945 27.0756 5.09021 27.4264C4.88062 27.7071 4.81068 28.1279 4.74097 28.4787C4.74097 28.6192 5.15992 28.9699 5.29958 28.8997C5.64882 28.8297 6.068 28.6192 6.13793 28.3384C6.41724 27.8474 6.41724 27.2861 6.48718 26.4443Z" fill="white"/>
<path d="M21.3655 58.9971C21.3655 58.9971 21.2956 60.8912 20.1779 62.2242C19.4097 63.2065 18.0126 63.2065 16.8252 62.5047C15.6376 61.8032 15.009 60.8211 15.009 60.8211C15.009 60.8211 16.6855 59.6986 18.1524 59.8389C19.4795 60.0494 21.3655 58.9971 21.3655 58.9971Z" fill="white"/>
<path d="M14.6597 57.173C14.6597 57.173 14.1706 58.7865 12.7736 59.7688C11.7959 60.4003 10.6083 60.1196 9.70019 59.2078C8.79211 58.2957 8.44287 57.3134 8.44287 57.3134C8.44287 57.3134 10.1893 56.6819 11.5163 57.2432C12.7039 57.594 14.6597 57.173 14.6597 57.173Z" fill="white"/>
<path d="M9.07173 53.9457C9.07173 53.9457 8.44296 55.0683 7.39523 55.6295C6.62681 55.9803 5.78867 55.6295 5.22984 54.7875C4.67101 54.0157 4.60107 53.244 4.60107 53.244C4.60107 53.244 5.99826 53.0337 6.8364 53.5247C7.60482 54.086 9.07173 53.9457 9.07173 53.9457Z" fill="white"/>
<path d="M6.41717 50.7185C6.41717 50.7185 5.50932 51.6303 4.32172 51.841C3.48336 51.9813 2.78487 51.3497 2.50557 50.4377C2.22604 49.5257 2.3657 48.7539 2.3657 48.7539C2.3657 48.7539 3.76288 48.9644 4.46137 49.6659C4.95026 50.3677 6.41717 50.7185 6.41717 50.7185Z" fill="white"/>
<path d="M3.69298 45.8072C3.69298 45.8072 2.85485 46.5089 1.87684 46.5789C1.17835 46.6492 0.619522 46.0879 0.47987 45.3161C0.27028 44.5446 0.47987 43.9131 0.47987 43.9131C0.47987 43.9131 1.59753 44.1936 2.15636 44.8251C2.50561 45.4564 3.69298 45.8072 3.69298 45.8072Z" fill="white"/>
<path d="M54.9642 9.11528C54.8943 7.22097 54.2657 6.51943 52.5892 6.09865C45.8135 4.27458 38.9681 3.64307 32.0528 3.64307C31.075 3.64307 30.1667 3.64307 29.1889 3.71331C22.9021 3.92381 16.6155 4.48508 10.5386 6.44941C9.70019 6.72994 9.00171 6.94044 9.00171 8.06298C9.14136 12.0619 8.93177 16.0608 9.35095 19.9897C9.70019 23.3571 10.259 26.5142 11.1671 29.531C14.5199 40.9665 21.7847 50.0868 31.9131 57.4534L31.9828 57.3831C39.7366 51.9109 45.9534 45.0356 50.0746 36.4063C51.1923 34.1612 52.0304 31.8461 52.7289 29.531C54.7546 22.9363 55.2437 16.0608 54.9642 9.11528Z" fill="#282828"/>
<path d="M32.0527 29.5312V57.3833C39.8064 51.9111 46.0231 45.0358 50.1445 36.4065C51.2621 34.1614 52.1003 31.8463 52.7988 29.5312H32.0527Z" fill="#333130"/>
<path d="M11.167 29.5312C14.5198 40.9667 21.7846 50.087 31.913 57.4536L31.9827 57.3833V29.5312H11.167Z" fill="#10100F"/>
<path d="M54.9642 9.11528C54.8942 7.22097 54.2657 6.51943 52.5892 6.09865C45.8135 4.27458 38.9681 3.64307 32.0527 3.64307V29.531H52.7988C54.7546 22.9363 55.2437 16.131 54.9642 9.11528Z" fill="#3F3C3A"/>
<path d="M29.1889 3.71331C22.9021 3.92381 16.6155 4.48508 10.5386 6.44941C9.70019 6.72994 9.00171 6.94044 9.00171 8.06298C9.14136 12.0619 8.93177 16.0608 9.35095 19.9897C9.70019 23.3571 10.259 26.5142 11.1671 29.531H31.9828V3.64307C31.075 3.64307 30.097 3.64307 29.1889 3.71331Z" fill="#282828"/>
<path d="M31.9131 61.7332C21.3654 54.7877 13.3324 45.8076 8.86201 33.8809C5.4393 24.7605 4.95019 15.2894 5.64867 5.74804C5.71861 5.11653 6.41709 4.13448 6.97592 3.99399C11.7958 2.31041 15.3582 1.39815 19.689 0.837104C29.8873 -0.495939 40.0857 -0.285435 50.1445 1.81916C52.5195 2.31041 54.8245 3.22244 57.1298 4.06424C57.6187 4.27474 58.2474 4.90625 58.2474 5.39728C58.876 15.9909 58.3871 26.4443 54.0563 36.4065C49.7952 46.2284 40.5049 56.9623 31.9131 61.7332ZM30.7954 2.45067C28.9093 2.52069 25.6962 2.45067 22.553 2.9417C18.1523 3.57321 13.9612 4.2045 9.3509 5.53754C8.44305 5.74804 7.81428 6.16905 7.884 7.36161C8.16352 12.6936 7.884 18.0955 8.65242 23.4275C10.8877 38.441 19.1303 49.6662 31.2146 58.2953C31.5638 58.5761 32.4022 58.5761 32.7514 58.2953C38.8984 53.8756 44.2072 48.6137 48.2584 42.1594C54.8245 31.706 56.7106 20.2003 56.0121 8.06314C55.9422 6.5196 55.3833 5.74804 53.9164 5.32704C46.8614 3.08196 39.5269 2.59093 30.7954 2.45067Z" fill="#E2B46A"/>
<path d="M30.7955 2.45068C39.527 2.59095 46.8615 3.08197 53.9865 5.32705C55.5231 5.8183 56.012 6.51983 56.0819 8.06316C56.7804 20.2001 54.8943 31.7058 48.3284 42.1594C44.277 48.6137 38.9682 53.8756 32.8213 58.2953C32.472 58.5761 31.6337 58.5058 31.2844 58.2953C19.2002 49.666 10.8878 38.4411 8.72246 23.4275C7.95404 18.1658 8.23334 12.7636 7.95404 7.36163C7.8841 6.16884 8.51265 5.67782 9.42094 5.53755C13.8214 4.62552 18.2221 3.57322 22.6229 2.94171C25.6963 2.45068 28.9094 2.5207 30.7955 2.45068ZM31.9132 57.4535C39.7366 51.9111 45.9535 45.1058 50.1446 36.4065C54.3357 27.7772 55.3137 18.5866 54.9643 9.11545C54.8945 7.22114 54.2658 6.51961 52.5895 6.09882C44.9057 3.99401 37.0823 3.50298 29.189 3.71348C22.9024 3.92399 16.6156 4.48526 10.5386 6.44959C9.70025 6.73011 9.00176 6.94062 9.00176 8.06316C9.14164 12.0621 8.93205 16.061 9.351 19.9899C10.8878 35.9855 19.0605 48.1227 31.9132 57.4535Z" fill="#F3F3F3"/>
<path d="M21.9943 25.462C21.1559 25.6723 20.3877 25.6723 19.6193 25.462C17.6635 24.9008 16.406 22.9362 16.6855 20.9019C16.9648 18.8673 18.711 17.3237 20.7368 17.3237C28.2809 17.3237 35.8248 17.3237 43.3689 17.3237C45.4643 17.3237 47.2805 18.9373 47.4901 20.9719C47.6997 23.2169 46.2327 25.1813 44.0674 25.462C43.4386 25.532 42.81 25.462 42.1813 25.462C42.1813 29.952 42.1813 34.5121 42.1813 39.0723C41.7621 39.0723 41.4129 39.0723 41.0636 39.0723C41.0636 38.932 41.0636 38.7918 41.0636 38.7215C41.0636 34.2316 41.0636 29.6714 41.0636 25.1813C41.0636 24.971 40.9937 24.8305 40.854 24.6903C39.6666 23.708 39.1078 22.3752 39.3871 20.8316C39.3871 20.7614 39.3871 20.6913 39.3871 20.6913C39.3871 20.6211 39.3871 20.6211 39.3871 20.5509C34.5674 20.5509 29.6778 20.5509 24.7882 20.5509C24.7882 20.7614 24.8579 20.9016 24.8579 21.1121C24.9978 22.5854 24.439 23.8482 23.3213 24.7603C23.1117 24.9008 23.0418 25.041 23.0418 25.3215C23.0418 29.8817 23.0418 34.3717 23.0418 38.9318C23.0418 39.0021 23.0418 39.1423 23.0418 39.2826C22.6926 39.2826 22.3433 39.2826 21.9241 39.2826C21.9943 34.6526 21.9943 30.0922 21.9943 25.462ZM22.9721 19.4285C29.0493 19.4285 35.0566 19.4285 41.1336 19.4285C41.0638 19.4988 40.9939 19.5688 40.9939 19.639C40.4351 20.4108 40.2255 21.1824 40.4351 22.1647C40.6447 23.3574 41.6924 24.2692 42.88 24.55C44.0674 24.7605 45.3247 24.1992 45.9534 23.1469C46.582 22.0944 46.5121 20.7616 45.8136 19.7793C45.1151 18.8673 44.1373 18.5165 43.0196 18.5165C35.755 18.5165 28.4905 18.5165 21.2259 18.5165C20.9463 18.5165 20.667 18.5165 20.3875 18.5165C18.9905 18.657 17.8729 19.8496 17.803 21.1824C17.6633 22.6557 18.5714 23.9185 19.9683 24.3395C21.2956 24.7605 22.7625 24.129 23.461 22.9364C24.0897 21.7436 23.8802 20.5511 22.9721 19.4285Z" fill="#E2B46A"/>
<path d="M32.1228 14.5175C36.5932 14.5175 41.0639 14.5175 45.5343 14.5175C46.2328 14.5175 46.7219 14.9385 46.7916 15.4996C46.8616 16.2013 46.3724 16.6923 45.674 16.6923C44.8358 16.6923 43.9977 16.6923 43.1593 16.6923C35.0566 16.6923 26.9537 16.6923 18.9209 16.6923C18.781 16.6923 18.6413 16.6923 18.5714 16.6923C17.9429 16.6221 17.5237 16.2013 17.5237 15.5698C17.5237 14.9385 17.9429 14.5175 18.5714 14.4473C18.7113 14.4473 18.8509 14.4473 18.9906 14.4473C23.3214 14.5175 27.7221 14.5175 32.1228 14.5175Z" fill="#E2B46A"/>
<path d="M25.8359 39.2125C25.417 39.2125 25.1374 39.2125 24.7183 39.2125C24.7183 39.072 24.7183 38.9318 24.7183 38.7915C24.7183 34.2313 24.7183 29.6712 24.7183 25.111C24.7183 24.0585 24.9978 23.7077 26.0455 23.4974C26.6043 23.3569 27.2331 23.4272 27.7919 23.6377C28.4205 23.9182 28.6301 24.1989 28.6301 24.9005C28.6301 28.5486 28.6301 32.1968 28.6301 35.8449C28.6301 36.8272 28.6301 37.8795 28.6301 38.8615C28.6301 38.9318 28.6301 39.072 28.6301 39.2125C28.2808 39.2125 27.9316 39.2125 27.5124 39.2125C27.5124 39.072 27.5124 38.9318 27.5124 38.8615C27.5124 34.3014 27.5124 29.6712 27.5124 25.111C27.5124 24.7602 27.3728 24.6197 27.0932 24.6197C26.9536 24.6197 26.8139 24.5495 26.6043 24.5495C25.9059 24.5495 25.766 24.6197 25.766 25.3213C25.766 29.8114 25.766 34.3014 25.766 38.7915C25.8359 38.9318 25.8359 39.0723 25.8359 39.2125Z" fill="#E2B46A"/>
<path d="M36.5932 39.2125C36.1741 39.2125 35.8948 39.2125 35.4756 39.2125C35.4756 38.7213 35.4756 38.2302 35.4756 37.7392C35.4756 33.5298 35.4756 29.3904 35.4756 25.181C35.4756 24.1287 35.7551 23.7779 36.8028 23.4974C37.4314 23.3569 37.9904 23.4272 38.619 23.6377C39.1079 23.8482 39.3874 24.1989 39.3874 24.8305C39.3874 29.5309 39.3874 34.1611 39.3874 38.8618C39.3874 39.002 39.3874 39.0723 39.3874 39.2125C39.0382 39.2125 38.6889 39.2125 38.2697 39.2125C38.2697 39.0723 38.2697 39.002 38.2697 38.8618C38.2697 34.3016 38.2697 29.6712 38.2697 25.111C38.2697 24.7602 38.1998 24.62 37.8506 24.62C37.5713 24.62 37.222 24.62 36.9425 24.62C36.6632 24.62 36.5235 24.7602 36.5235 25.111C36.5235 26.5843 36.5235 28.0576 36.5235 29.5309C36.5235 32.6178 36.5235 35.7747 36.5235 38.8615C36.5932 38.9318 36.5932 39.0723 36.5932 39.2125Z" fill="#E2B46A"/>
<path d="M34.0089 39.2129C33.6596 39.2129 33.3104 39.2129 32.8912 39.2129C32.8912 39.0724 32.8912 38.9322 32.8912 38.7919C32.8912 34.9333 32.8912 31.0746 32.8912 27.1457C32.8912 26.4442 32.8912 25.6724 32.8912 24.9709C32.8912 24.6904 32.8213 24.6201 32.542 24.5499C32.4021 24.5499 32.3324 24.4799 32.1927 24.4799C31.4243 24.4096 31.2847 24.5499 31.2847 25.3217C31.2847 29.8118 31.2847 34.3018 31.2847 38.7919C31.2847 38.9322 31.2847 39.0022 31.2847 39.1427C30.9354 39.1427 30.5862 39.1427 30.167 39.1427C30.167 39.0022 30.167 38.9322 30.167 38.7919C30.167 34.0912 30.167 29.4611 30.167 24.7606C30.167 24.1993 30.3764 23.8486 30.8655 23.6381C31.7038 23.2873 32.472 23.2873 33.3104 23.6381C33.7993 23.8484 34.0089 24.1991 34.0089 24.7606C34.0089 29.3908 34.0089 34.0912 34.0089 38.7217C34.0089 38.9322 34.0089 39.0726 34.0089 39.2129Z" fill="#E2B46A"/>
<path d="M45.4645 21.533C45.4645 22.7256 44.4865 23.6376 43.3689 23.6376C42.1813 23.6376 41.2734 22.6554 41.3431 21.4628C41.3431 20.3403 42.3211 19.4282 43.4388 19.4282C44.5562 19.4282 45.4645 20.3403 45.4645 21.533ZM43.3689 22.5151C43.9277 22.5151 44.3469 22.0941 44.3469 21.533C44.3469 20.9718 43.8577 20.5508 43.3689 20.5508C42.88 20.5508 42.3911 20.9718 42.3911 21.533C42.3908 22.0241 42.81 22.5151 43.3689 22.5151Z" fill="#E2B46A"/>
<path d="M18.7109 21.4632C18.7109 20.3407 19.6889 19.3584 20.8066 19.3584C21.9243 19.3584 22.9021 20.3407 22.8323 21.4632C22.8323 22.6558 21.8543 23.5678 20.7367 23.5678C19.6192 23.5678 18.7109 22.6558 18.7109 21.4632ZM21.7846 21.5335C21.7846 20.9722 21.2955 20.5512 20.8066 20.5512C20.248 20.5512 19.8288 21.0422 19.8288 21.6035C19.8288 22.1647 20.248 22.5858 20.8066 22.5858C21.2955 22.5155 21.7846 22.0245 21.7846 21.5335Z" fill="#E2B46A"/>
<path d="M91.8957 25.23C90.5982 25.23 89.8242 25.23 89.4371 25.1842C89.3461 25.1614 89.278 25.1614 89.278 25.0471C89.278 24.8642 89.5509 24.2469 93.125 14.1185C93.1705 14.0271 93.2159 14.0271 93.2617 14.1185C94.764 17.9822 96.1526 21.9149 97.3364 24.9328C97.4272 25.0927 97.3818 25.1614 97.268 25.1614C97.0631 25.2069 96.5851 25.23 94.7185 25.23H91.8957ZM98.042 26.5789C99.0891 26.5789 100.25 26.6018 101.001 26.6476C102.026 26.7389 102.435 27.2193 102.527 28.248C102.549 28.4994 102.595 28.751 102.731 28.751C102.845 28.751 102.936 28.6823 102.936 28.248C102.936 27.059 103.187 25.6873 103.278 25.23C103.323 24.9784 103.278 24.9328 103.118 24.9555C102.595 25.07 101.593 25.1158 100.91 25.1158C100.728 25.1158 100.614 25.0242 100.5 24.8186C98.611 20.2231 95.06 11.1463 94.4681 9.77434C94.2632 9.29421 94.1264 9.01991 93.9443 9.01991C93.7396 9.01991 93.5576 9.29421 93.1933 10.1631L87.6389 24.7955C87.5251 25.0471 87.4567 25.1158 87.2746 25.1158C86.6372 25.1158 85.9542 25.07 85.4992 25.0013C85.3624 25.0013 85.3396 25.0242 85.3396 25.2069C85.3624 25.6188 85.4762 26.6247 85.4762 28.248C85.4762 28.6366 85.5445 28.751 85.6583 28.751C85.8179 28.751 85.8632 28.5452 85.8858 28.2936C86 27.2193 86.4323 26.7389 87.8664 26.6476C88.4356 26.6247 89.2096 26.5789 90.7119 26.5789H98.042ZM105.281 26.6476C106.282 26.6476 109.196 26.6247 109.492 26.5789C109.606 26.556 109.652 26.5102 109.674 26.3504C109.743 25.6188 110.38 24.3385 110.676 23.6525C111.814 21.2518 114.774 14.7131 116.39 11.5577C116.913 10.5517 117.187 10.1858 117.801 9.95728C118.029 9.8886 118.37 9.79724 118.825 9.77434C119.076 9.75167 119.144 9.66009 119.144 9.52294C119.144 9.40846 119.053 9.36289 118.803 9.36289C118.393 9.36289 116.845 9.43158 116.39 9.43158C115.729 9.43158 115.092 9.38557 114.751 9.38557C114.455 9.38557 114.318 9.43158 114.318 9.56873C114.318 9.68298 114.409 9.72877 114.683 9.79724C114.978 9.86592 115.069 9.98018 115.069 10.2087C115.069 10.5059 114.91 11.0089 114.683 11.5348C113.886 13.4325 112.451 16.7705 111.291 19.1939C110.858 18.4397 107.307 11.7862 106.965 11.1005C106.76 10.7119 106.624 10.3461 106.624 10.2318C106.624 9.98018 106.738 9.82013 107.307 9.79724C107.603 9.77434 107.671 9.66009 107.671 9.54583C107.671 9.47715 107.58 9.36289 107.307 9.36289C106.305 9.36289 104.917 9.43158 104.666 9.43158C103.938 9.43158 102.527 9.36289 101.73 9.36289C101.434 9.36289 101.343 9.45425 101.343 9.56873C101.343 9.68298 101.502 9.77434 101.707 9.77434C102.936 9.82013 103.209 10.1176 104.052 11.6264C105.008 13.2495 108.764 20.0401 109.606 21.7775C109.743 22.0291 109.743 22.1663 109.652 22.4179C109.424 22.9209 109.105 23.4695 108.627 24.224C107.535 25.8929 106.965 26.1216 105.213 26.2132C105.031 26.2132 104.871 26.2817 104.871 26.419C104.871 26.556 105.008 26.6476 105.281 26.6476ZM124.266 17.7766C124.266 17.685 124.289 17.6395 124.38 17.6395C125.973 17.5937 127.066 17.868 127.908 18.531C129.024 19.3997 129.433 20.9088 129.433 22.4864C129.433 24.9328 128.204 25.6873 126.565 25.6873C125.882 25.6873 125.199 25.5728 124.789 25.3216C124.539 25.1614 124.334 24.9328 124.311 24.4298C124.243 23.4009 124.266 21.2289 124.266 19.3768V17.7766ZM124.402 10.5746C125.085 10.5975 127.703 10.5975 128.568 10.6433C129.615 10.6888 130.093 11.032 130.253 11.3519C130.389 11.672 130.435 12.1063 130.435 12.2893C130.458 12.5409 130.503 12.6325 130.662 12.6325C130.822 12.6325 130.867 12.4495 130.89 12.2664C130.936 11.5348 130.981 10.6433 131.004 10.4147C131.072 9.82013 131.163 9.54583 131.163 9.38557C131.163 9.27131 131.118 9.17995 131.027 9.17995C130.913 9.17995 130.799 9.22574 130.662 9.27131C130.435 9.34 130.025 9.38557 129.593 9.40846C129.069 9.43158 123.651 9.43158 122.786 9.43158C122.058 9.43158 120.874 9.36289 119.827 9.36289C119.463 9.36289 119.394 9.45425 119.394 9.56873C119.394 9.68298 119.485 9.77434 119.782 9.77434C120.032 9.77434 120.282 9.79724 120.487 9.82013C121.102 9.8886 121.443 10.2545 121.489 11.0089C121.534 11.7862 121.534 12.4266 121.534 15.9932V20.0172C121.534 22.692 121.489 24.0184 121.398 24.9784C121.352 25.6415 121.238 26.0532 120.783 26.1445C120.532 26.2132 120.1 26.2132 119.895 26.2361C119.668 26.2588 119.577 26.3275 119.577 26.4646C119.577 26.6018 119.782 26.6476 119.964 26.6476C120.646 26.6476 122.445 26.5789 122.741 26.5789C123.242 26.5789 125.381 26.6931 126.383 26.6931C130.594 26.6931 132.279 23.881 132.279 21.6861C132.279 19.9485 131.505 18.4397 129.889 17.5479C128.796 16.9764 127.635 16.6563 125.017 16.6563C124.63 16.6563 124.721 16.6792 124.357 16.6792C124.289 16.6792 124.266 16.6563 124.266 16.5647V10.8031C124.243 10.6433 124.266 10.5746 124.402 10.5746ZM139.631 12.2437C139.677 10.3461 139.791 9.93461 140.542 9.82013C140.701 9.79724 141.088 9.77434 141.202 9.77434C141.521 9.77434 141.635 9.70566 141.635 9.54583C141.635 9.40846 141.498 9.36289 141.157 9.36289C140.542 9.36289 139.313 9.40846 138.243 9.43158C137.788 9.43158 135.966 9.36289 135.215 9.36289C134.919 9.36289 134.783 9.40846 134.783 9.56873C134.783 9.68298 134.897 9.77434 135.17 9.77434C135.306 9.77434 135.466 9.77434 135.716 9.79724C136.604 9.8886 136.718 10.3461 136.786 12.7238C136.854 17.228 136.786 22.4408 136.786 25.8929C136.786 26.6704 136.877 27.0134 137.105 27.0134C137.241 27.0134 137.492 26.8761 138.084 26.2817C139.017 25.2985 140.997 22.8065 144.776 18.3939C146.87 15.879 148.1 14.4841 148.919 13.4098C148.851 16.8621 148.896 20.863 148.805 24.041C148.76 25.5272 148.691 25.9845 147.94 26.1674C147.736 26.2132 147.417 26.2361 147.121 26.2588C146.779 26.3043 146.643 26.3275 146.643 26.4646C146.643 26.6018 146.87 26.6476 147.212 26.6476C148.031 26.6476 149.01 26.5789 149.716 26.5789C150.149 26.6018 152.539 26.6476 153.381 26.6476C153.677 26.6476 153.904 26.6247 153.904 26.4646C153.904 26.3504 153.722 26.3275 153.381 26.2588C153.222 26.2361 152.857 26.1901 152.744 26.1674C151.947 26.0303 151.787 25.8015 151.742 24.224C151.628 19.8572 151.674 15.4673 151.628 11.0776C151.628 9.43158 151.582 9.08837 151.332 9.08837C151.082 9.08837 150.695 9.29421 149.397 10.8031C148.282 12.1063 147.098 13.5925 145.004 16.1075C143.57 17.8224 141.18 20.6345 139.586 22.5322L139.631 12.2437ZM161.622 16.6334C161.553 16.6334 161.485 16.5876 161.485 16.4733V15.9932C161.485 12.518 161.485 11.8778 161.53 11.1463C161.576 10.3461 161.758 9.91172 162.373 9.82013C162.555 9.79724 162.851 9.77434 163.033 9.77434C163.238 9.77434 163.443 9.72877 163.443 9.56873C163.443 9.40846 163.283 9.36289 162.964 9.36289C162.077 9.36289 160.643 9.43158 160.096 9.43158C159.482 9.43158 158.048 9.36289 156.818 9.36289C156.5 9.36289 156.34 9.40846 156.34 9.56873C156.34 9.72877 156.477 9.77434 156.727 9.77434C157.046 9.77434 157.433 9.79724 157.615 9.84303C158.366 10.0029 158.548 10.3687 158.594 11.1463C158.639 11.8778 158.639 12.518 158.639 15.9932V20.0172C158.639 22.1207 158.639 23.9268 158.526 24.8871C158.435 25.5501 158.321 26.0532 157.866 26.1445C157.661 26.1901 157.387 26.2361 157.046 26.2361C156.773 26.2361 156.682 26.3043 156.682 26.419C156.682 26.5789 156.841 26.6476 157.137 26.6476C158.048 26.6476 159.482 26.5789 160.005 26.5789C160.643 26.5789 162.077 26.6476 163.556 26.6476C163.83 26.6476 164.012 26.5789 164.012 26.419C164.012 26.3043 163.898 26.2361 163.647 26.2361C163.306 26.2361 162.805 26.1901 162.487 26.1445C161.804 26.0532 161.667 25.5501 161.599 24.9097C161.485 23.9268 161.485 22.1207 161.485 20.0172V18.0051C161.485 17.8909 161.553 17.868 161.622 17.868H170.317C170.386 17.868 170.454 17.9135 170.454 18.0051V20.0172C170.454 22.1207 170.454 23.9268 170.34 24.8871C170.249 25.5501 170.135 26.0532 169.68 26.1445C169.475 26.1901 169.202 26.2361 168.86 26.2361C168.587 26.2361 168.496 26.3043 168.496 26.419C168.496 26.5789 168.656 26.6476 168.974 26.6476C169.862 26.6476 171.296 26.5789 171.82 26.5789C172.457 26.5789 173.891 26.6476 175.371 26.6476C175.644 26.6476 175.826 26.5789 175.826 26.419C175.826 26.3043 175.712 26.2361 175.462 26.2361C175.121 26.2361 174.62 26.1901 174.301 26.1445C173.618 26.0532 173.482 25.5501 173.413 24.9097C173.299 23.9268 173.299 22.1207 173.299 20.0172V15.9932C173.299 12.518 173.299 11.8778 173.345 11.1463C173.39 10.3461 173.573 9.95728 174.187 9.84303C174.46 9.79724 174.665 9.77434 174.847 9.77434C175.121 9.77434 175.257 9.72877 175.257 9.56873C175.257 9.40846 175.098 9.36289 174.779 9.36289C173.891 9.36289 172.457 9.43158 171.911 9.43158C171.296 9.43158 169.862 9.36289 168.633 9.36289C168.314 9.36289 168.155 9.40846 168.155 9.56873C168.155 9.72877 168.291 9.77434 168.542 9.77434C168.86 9.77434 169.248 9.79724 169.429 9.84303C170.181 10.0029 170.363 10.3687 170.408 11.1463C170.454 11.8778 170.454 12.518 170.454 15.9932V16.4733C170.454 16.5876 170.386 16.6334 170.317 16.6334H161.622ZM182.997 12.2437C183.042 10.3461 183.156 9.93461 183.908 9.82013C184.067 9.79724 184.454 9.77434 184.567 9.77434C184.886 9.77434 185 9.70566 185 9.54583C185 9.40846 184.863 9.36289 184.522 9.36289C183.908 9.36289 182.678 9.40846 181.608 9.43158C181.153 9.43158 179.332 9.36289 178.581 9.36289C178.285 9.36289 178.148 9.40846 178.148 9.56873C178.148 9.68298 178.262 9.77434 178.535 9.77434C178.672 9.77434 178.831 9.77434 179.081 9.79724C179.969 9.8886 180.083 10.3461 180.151 12.7238C180.22 17.228 180.151 22.4408 180.151 25.8929C180.151 26.6704 180.242 27.0134 180.47 27.0134C180.607 27.0134 180.857 26.8761 181.449 26.2817C182.382 25.2985 184.363 22.8065 188.142 18.3939C190.236 15.879 191.465 14.4841 192.285 13.4098C192.216 16.8621 192.262 20.863 192.171 24.041C192.125 25.5272 192.057 25.9845 191.306 26.1674C191.101 26.2132 190.782 26.2361 190.486 26.2588C190.145 26.3043 190.008 26.3275 190.008 26.4646C190.008 26.6018 190.236 26.6476 190.577 26.6476C191.397 26.6476 192.376 26.5789 193.081 26.5789C193.514 26.6018 195.904 26.6476 196.746 26.6476C197.042 26.6476 197.27 26.6247 197.27 26.4646C197.27 26.3504 197.088 26.3275 196.746 26.2588C196.587 26.2361 196.223 26.1901 196.109 26.1674C195.312 26.0303 195.153 25.8015 195.107 24.224C194.993 19.8572 195.039 15.4673 194.993 11.0776C194.993 9.43158 194.948 9.08837 194.697 9.08837C194.447 9.08837 194.06 9.29421 192.763 10.8031C191.647 12.1063 190.464 13.5925 188.369 16.1075C186.935 17.8224 184.545 20.6345 182.951 22.5322L182.997 12.2437ZM204.987 16.6334C204.919 16.6334 204.85 16.5876 204.85 16.4733V15.9932C204.85 12.518 204.85 11.8778 204.896 11.1463C204.941 10.3461 205.124 9.91172 205.738 9.82013C205.92 9.79724 206.216 9.77434 206.398 9.77434C206.603 9.77434 206.808 9.72877 206.808 9.56873C206.808 9.40846 206.649 9.36289 206.33 9.36289C205.442 9.36289 204.008 9.43158 203.462 9.43158C202.847 9.43158 201.413 9.36289 200.184 9.36289C199.865 9.36289 199.706 9.40846 199.706 9.56873C199.706 9.72877 199.842 9.77434 200.093 9.77434C200.412 9.77434 200.798 9.79724 200.981 9.84303C201.732 10.0029 201.914 10.3687 201.959 11.1463C202.005 11.8778 202.005 12.518 202.005 15.9932V20.0172C202.005 22.1207 202.005 23.9268 201.891 24.8871C201.8 25.5501 201.686 26.0532 201.231 26.1445C201.026 26.1901 200.753 26.2361 200.412 26.2361C200.138 26.2361 200.047 26.3043 200.047 26.419C200.047 26.5789 200.206 26.6476 200.502 26.6476C201.413 26.6476 202.847 26.5789 203.371 26.5789C204.008 26.5789 205.442 26.6476 206.922 26.6476C207.195 26.6476 207.377 26.5789 207.377 26.419C207.377 26.3043 207.263 26.2361 207.013 26.2361C206.671 26.2361 206.171 26.1901 205.852 26.1445C205.169 26.0532 205.032 25.5501 204.964 24.9097C204.85 23.9268 204.85 22.1207 204.85 20.0172V18.0051C204.85 17.8909 204.919 17.868 204.987 17.868H213.683C213.751 17.868 213.819 17.9135 213.819 18.0051V20.0172C213.819 22.1207 213.819 23.9268 213.706 24.8871C213.615 25.5501 213.501 26.0532 213.045 26.1445C212.84 26.1901 212.567 26.2361 212.226 26.2361C211.953 26.2361 211.862 26.3043 211.862 26.419C211.862 26.5789 212.021 26.6476 212.34 26.6476C213.227 26.6476 214.662 26.5789 215.185 26.5789C215.822 26.5789 217.257 26.6476 218.737 26.6476C219.009 26.6476 219.192 26.5789 219.192 26.419C219.192 26.3043 219.078 26.2361 218.827 26.2361C218.486 26.2361 217.985 26.1901 217.666 26.1445C216.983 26.0532 216.847 25.5501 216.779 24.9097C216.665 23.9268 216.665 22.1207 216.665 20.0172V15.9932C216.665 12.518 216.665 11.8778 216.71 11.1463C216.756 10.3461 216.938 9.95728 217.553 9.84303C217.826 9.79724 218.031 9.77434 218.213 9.77434C218.486 9.77434 218.623 9.72877 218.623 9.56873C218.623 9.40846 218.463 9.36289 218.145 9.36289C217.257 9.36289 215.822 9.43158 215.276 9.43158C214.662 9.43158 213.227 9.36289 211.998 9.36289C211.68 9.36289 211.52 9.40846 211.52 9.56873C211.52 9.72877 211.657 9.77434 211.907 9.77434C212.226 9.77434 212.613 9.79724 212.795 9.84303C213.546 10.0029 213.728 10.3687 213.774 11.1463C213.819 11.8778 213.819 12.518 213.819 15.9932V16.4733C213.819 16.5876 213.751 16.6334 213.683 16.6334H204.987ZM271.321 15.9932C271.321 12.4266 271.321 11.8323 271.367 11.1005C271.412 10.1858 271.754 9.86592 272.346 9.82013C272.596 9.79724 272.687 9.79724 272.96 9.77434C273.256 9.75167 273.279 9.66009 273.279 9.56873C273.279 9.47715 273.211 9.36289 272.846 9.36289C272.141 9.36289 269.842 9.43158 269.728 9.43158H258.186C257.777 9.43158 256.047 9.36289 254.999 9.36289C254.749 9.36289 254.59 9.43158 254.59 9.56873C254.59 9.66009 254.658 9.77434 254.931 9.77434C255.182 9.77434 255.568 9.79724 255.842 9.84303C256.525 9.98018 256.798 10.2774 256.843 11.0547C256.889 11.7862 256.889 12.4266 256.889 15.9932V20.0172C256.889 22.1207 256.889 23.9268 256.775 24.8871C256.684 25.5501 256.57 26.0532 256.115 26.1445C255.91 26.1901 255.637 26.2361 255.295 26.2361C255.022 26.2361 254.931 26.3043 254.931 26.419C254.931 26.5789 255.09 26.6476 255.386 26.6476C256.297 26.6476 257.731 26.5789 258.254 26.5789C258.892 26.5789 260.326 26.6476 261.806 26.6476C262.079 26.6476 262.261 26.5789 262.261 26.419C262.261 26.3043 262.147 26.2361 261.897 26.2361C261.555 26.2361 261.055 26.1901 260.736 26.1445C260.053 26.0532 259.916 25.5501 259.848 24.9097C259.734 23.9268 259.734 22.1207 259.734 20.0172V10.8718C259.734 10.7575 259.825 10.6888 259.894 10.6888C260.167 10.6662 260.736 10.6662 263.65 10.6662C266.404 10.6662 267.975 10.6662 268.339 10.7119C268.407 10.7119 268.476 10.7804 268.476 10.8718V20.0172C268.476 22.1207 268.476 23.9268 268.362 24.8871C268.271 25.5501 268.157 26.0532 267.702 26.1445C267.497 26.1901 267.223 26.2361 266.882 26.2361C266.609 26.2361 266.518 26.3043 266.518 26.419C266.518 26.5789 266.677 26.6476 266.996 26.6476C267.884 26.6476 269.318 26.5789 269.842 26.5789C270.479 26.5789 271.913 26.6476 273.392 26.6476C273.666 26.6476 273.848 26.5789 273.848 26.419C273.848 26.3043 273.734 26.2361 273.484 26.2361C273.142 26.2361 272.642 26.1901 272.323 26.1445C271.64 26.0532 271.503 25.5501 271.435 24.9097C271.321 23.9268 271.321 22.1207 271.321 20.0172V15.9932ZM284.775 20.6801C284.888 20.6801 284.957 20.7259 285.002 20.8404L286.823 25.6873C286.937 25.9616 286.778 26.1674 286.618 26.2132C286.391 26.2361 286.3 26.3043 286.3 26.419C286.3 26.556 286.414 26.5789 286.823 26.6018C288.644 26.6475 290.465 26.6476 291.285 26.6476C292.127 26.6476 292.332 26.6018 292.332 26.419C292.332 26.2817 292.218 26.2361 292.036 26.2361C291.763 26.2361 291.422 26.2132 291.08 26.1445C290.602 26.0303 289.942 25.71 289.077 23.6525C287.62 20.1771 283.978 10.8491 283.432 9.5914C283.204 9.0657 283.044 8.85986 282.862 8.85986C282.657 8.85986 282.498 9.11149 282.225 9.77434L276.511 24.1326C276.056 25.2756 275.624 26.0532 274.576 26.1901C274.394 26.2132 274.121 26.2361 273.916 26.2361C273.734 26.2361 273.597 26.2817 273.597 26.419C273.597 26.6018 273.734 26.6476 274.03 26.6476C275.214 26.6476 276.466 26.5789 276.716 26.5789C277.422 26.5789 278.401 26.6476 279.129 26.6476C279.38 26.6476 279.516 26.6018 279.516 26.419C279.516 26.2817 279.448 26.2361 279.174 26.2361C279.084 26.2361 278.947 26.2361 278.833 26.2361C278.128 26.2361 277.923 25.9387 277.923 25.5272C277.923 25.2529 278.036 24.7041 278.264 24.1326L279.493 20.863C279.539 20.7259 279.585 20.6801 279.698 20.6801H284.775ZM280.153 19.5371C280.062 19.5371 280.04 19.4684 280.062 19.3768L282.157 13.7526C282.248 13.4783 282.339 13.547 282.407 13.7526L284.456 19.3997C284.479 19.4684 284.456 19.5371 284.342 19.5371H280.153ZM294.723 20.0172C294.723 22.1207 294.723 23.9268 294.609 24.8871C294.518 25.5501 294.404 26.0532 293.949 26.1445C293.744 26.1901 293.47 26.2361 293.129 26.2361C292.856 26.2361 292.765 26.3043 292.765 26.419C292.765 26.5789 292.924 26.6476 293.22 26.6476C294.131 26.6476 295.565 26.5789 296.088 26.5789C296.68 26.5789 298.114 26.6476 299.617 26.6476C299.867 26.6476 300.049 26.5789 300.049 26.419C300.049 26.3043 299.935 26.2361 299.685 26.2361C299.343 26.2361 298.843 26.1901 298.524 26.1445C297.841 26.0532 297.705 25.5501 297.636 24.9097C297.522 23.9268 297.522 22.1207 297.522 20.0172V10.8718C297.522 10.6204 297.591 10.4832 297.705 10.4374C297.91 10.3687 298.251 10.3461 298.592 10.3461C299.116 10.3461 300.117 10.4832 300.937 11.2376C302.212 12.3809 302.212 13.8897 302.212 14.6444C302.212 16.9764 300.436 18.4397 299.161 18.4397C298.683 18.4397 298.524 18.5081 298.524 18.6911C298.524 18.8511 298.683 18.874 298.797 18.8967C298.911 18.9198 299.161 18.9198 299.275 18.9198C302.508 18.9198 304.875 16.542 304.875 13.7299C304.875 12.1521 304.283 11.2376 303.782 10.7346C303.259 10.2318 302.348 9.36289 299.503 9.36289C298.456 9.36289 297.135 9.43158 296.202 9.43158C295.565 9.43158 294.131 9.36289 292.924 9.36289C292.583 9.36289 292.423 9.40846 292.423 9.56873C292.423 9.72877 292.56 9.77434 292.81 9.77434C293.129 9.77434 293.516 9.79724 293.698 9.84303C294.449 10.0029 294.631 10.3687 294.677 11.1463C294.723 11.8778 294.723 12.518 294.723 15.9932V20.0172ZM315.392 10.6433C316.735 10.6662 317.669 10.6888 318.26 10.7119C320.286 10.7575 320.901 11.3977 320.946 11.9921C320.946 12.0608 320.969 12.175 320.969 12.2437C320.992 12.5865 321.038 12.7007 321.22 12.7007C321.356 12.7007 321.402 12.5638 321.425 12.3351C321.425 11.7407 321.493 10.1631 321.493 9.68298C321.493 9.34 321.47 9.20263 321.311 9.20263C321.22 9.20263 321.038 9.24864 320.696 9.31733C320.355 9.36289 319.854 9.43158 319.125 9.43158H310.111C309.36 9.43158 308.495 9.38557 307.834 9.31733C307.266 9.27131 307.038 9.0428 306.855 9.0428C306.719 9.0428 306.651 9.17995 306.583 9.47715C306.537 9.66009 306.105 11.7407 306.105 12.1063C306.105 12.358 306.15 12.4722 306.309 12.4722C306.446 12.4722 306.514 12.3809 306.56 12.1979C306.605 12.0152 306.719 11.7407 306.947 11.3977C307.288 10.8947 307.834 10.7804 309.155 10.7346C310.27 10.7119 311.682 10.6662 312.547 10.6433V20.0172C312.547 22.1207 312.547 23.9268 312.433 24.8871C312.365 25.5501 312.228 26.0532 311.773 26.1445C311.568 26.1901 311.295 26.2361 310.953 26.2361C310.68 26.2361 310.589 26.3043 310.589 26.419C310.589 26.5789 310.749 26.6476 311.044 26.6476C311.955 26.6476 313.389 26.5789 313.912 26.5789C314.55 26.5789 315.984 26.6476 317.486 26.6476C317.737 26.6476 317.919 26.5789 317.919 26.419C317.919 26.3043 317.805 26.2361 317.555 26.2361C317.213 26.2361 316.712 26.1901 316.394 26.1445C315.711 26.0532 315.574 25.5501 315.506 24.9097C315.392 23.9268 315.392 22.1207 315.392 20.0172V10.6433ZM328.618 16.6334C328.55 16.6334 328.482 16.5876 328.482 16.4733V15.9932C328.482 12.518 328.482 11.8778 328.527 11.1463C328.573 10.3461 328.755 9.91172 329.369 9.82013C329.551 9.79724 329.847 9.77434 330.029 9.77434C330.234 9.77434 330.439 9.72877 330.439 9.56873C330.439 9.40846 330.28 9.36289 329.961 9.36289C329.074 9.36289 327.639 9.43158 327.093 9.43158C326.478 9.43158 325.044 9.36289 323.815 9.36289C323.496 9.36289 323.337 9.40846 323.337 9.56873C323.337 9.72877 323.473 9.77434 323.724 9.77434C324.043 9.77434 324.43 9.79724 324.612 9.84303C325.363 10.0029 325.545 10.3687 325.591 11.1463C325.636 11.8778 325.636 12.518 325.636 15.9932V20.0172C325.636 22.1207 325.636 23.9268 325.522 24.8871C325.431 25.5501 325.317 26.0532 324.862 26.1445C324.657 26.1901 324.384 26.2361 324.042 26.2361C323.769 26.2361 323.678 26.3043 323.678 26.419C323.678 26.5789 323.838 26.6476 324.133 26.6476C325.044 26.6476 326.478 26.5789 327.002 26.5789C327.639 26.5789 329.074 26.6476 330.553 26.6476C330.826 26.6476 331.008 26.5789 331.008 26.419C331.008 26.3043 330.895 26.2361 330.644 26.2361C330.303 26.2361 329.802 26.1901 329.483 26.1445C328.8 26.0532 328.663 25.5501 328.595 24.9097C328.482 23.9268 328.482 22.1207 328.482 20.0172V18.0051C328.482 17.8909 328.55 17.868 328.618 17.868H337.314C337.382 17.868 337.45 17.9135 337.45 18.0051V20.0172C337.45 22.1207 337.45 23.9268 337.337 24.8871C337.246 25.5501 337.132 26.0532 336.677 26.1445C336.472 26.1901 336.198 26.2361 335.857 26.2361C335.584 26.2361 335.493 26.3043 335.493 26.419C335.493 26.5789 335.652 26.6476 335.971 26.6476C336.859 26.6476 338.293 26.5789 338.816 26.5789C339.454 26.5789 340.888 26.6476 342.368 26.6476C342.641 26.6476 342.823 26.5789 342.823 26.419C342.823 26.3043 342.709 26.2361 342.458 26.2361C342.117 26.2361 341.616 26.1901 341.297 26.1445C340.614 26.0532 340.478 25.5501 340.41 24.9097C340.296 23.9268 340.296 22.1207 340.296 20.0172V15.9932C340.296 12.518 340.296 11.8778 340.342 11.1463C340.387 10.3461 340.569 9.95728 341.184 9.84303C341.457 9.79724 341.662 9.77434 341.844 9.77434C342.117 9.77434 342.254 9.72877 342.254 9.56873C342.254 9.40846 342.094 9.36289 341.776 9.36289C340.888 9.36289 339.454 9.43158 338.907 9.43158C338.293 9.43158 336.859 9.36289 335.629 9.36289C335.311 9.36289 335.151 9.40846 335.151 9.56873C335.151 9.72877 335.288 9.77434 335.538 9.77434C335.857 9.77434 336.244 9.79724 336.426 9.84303C337.177 10.0029 337.359 10.3687 337.405 11.1463C337.45 11.8778 337.45 12.518 337.45 15.9932V16.4733C337.45 16.5876 337.382 16.6334 337.314 16.6334H328.618ZM347.74 20.0172C347.74 22.1207 347.74 23.9268 347.626 24.8871C347.535 25.5501 347.421 26.0532 346.966 26.1445C346.761 26.1901 346.488 26.2361 346.146 26.2361C345.873 26.2361 345.782 26.3043 345.782 26.419C345.782 26.5789 345.941 26.6476 346.237 26.6476C347.262 26.6476 348.195 26.5789 349.106 26.5789C351.382 26.5789 353.385 26.7162 355.411 26.7162C356.276 26.7162 356.481 26.7162 356.64 26.1216C356.754 25.6644 356.936 24.1095 356.936 23.5838C356.936 23.3553 356.936 23.1723 356.754 23.1723C356.595 23.1723 356.549 23.2637 356.504 23.5153C356.345 24.4527 356.071 24.9328 355.48 25.2069C354.888 25.4814 353.931 25.4814 353.34 25.4814C351.018 25.4814 350.654 25.1385 350.608 23.5609C350.585 22.8978 350.608 20.7943 350.608 20.0172V18.2112C350.608 18.0738 350.631 17.9822 350.745 17.9822C351.291 17.9822 353.545 18.0051 353.977 18.0509C354.819 18.1425 355.138 18.4852 355.252 18.9427C355.32 19.2399 355.32 19.3768 355.343 19.6056C355.343 19.72 355.388 19.9714 355.548 19.9714C355.753 19.9714 355.753 19.72 355.753 19.5371C355.753 19.3768 355.821 18.4623 355.844 18.0051C355.935 16.8392 356.026 16.4733 356.026 16.3362C356.026 16.1988 355.958 16.1533 355.867 16.1533C355.753 16.1533 355.662 16.2675 355.502 16.4504C355.297 16.6792 354.956 16.7476 354.41 16.7934C353.886 16.8392 351.268 16.8392 350.767 16.8392C350.631 16.8392 350.608 16.7476 350.608 16.5876V10.8031C350.608 10.6433 350.654 10.5746 350.767 10.5746C351.223 10.5746 353.613 10.6204 354 10.6662C355.138 10.8031 355.366 11.0776 355.525 11.489C355.639 11.7636 355.662 12.1295 355.662 12.2208C355.662 12.4951 355.707 12.6325 355.867 12.6325C356.026 12.6325 356.071 12.4951 356.094 12.3809C356.14 12.1063 356.185 11.1005 356.208 10.8718C356.276 9.82013 356.39 9.54583 356.39 9.38557C356.39 9.27131 356.367 9.17995 356.254 9.17995C356.14 9.17995 356.003 9.24864 355.889 9.27131C355.707 9.31733 355.343 9.36289 354.91 9.40846C354.478 9.43158 349.948 9.43158 349.22 9.43158C348.036 9.43158 346.988 9.36289 345.941 9.36289C345.6 9.36289 345.441 9.40846 345.441 9.56873C345.441 9.72877 345.577 9.77434 345.828 9.77434C346.146 9.77434 346.533 9.79724 346.716 9.84303C347.466 10.0029 347.649 10.3687 347.694 11.1463C347.74 11.8778 347.74 12.518 347.74 15.9932V20.0172Z" fill="#F3F3F3"/>
<path d="M362.127 20.0174C362.127 22.1209 362.127 23.9269 362.013 24.8872C361.922 25.5503 361.808 26.0533 361.353 26.1447C361.148 26.1903 360.875 26.2363 360.533 26.2363C360.26 26.2363 360.169 26.3045 360.169 26.4192C360.169 26.579 360.328 26.6477 360.624 26.6477C361.535 26.6477 362.969 26.579 363.492 26.579C364.084 26.579 365.519 26.6477 367.021 26.6477C367.271 26.6477 367.453 26.579 367.453 26.4192C367.453 26.3045 367.34 26.2363 367.089 26.2363C366.748 26.2363 366.247 26.1903 365.928 26.1447C365.245 26.0533 365.109 25.5503 365.04 24.9099C364.927 23.9269 364.927 22.1209 364.927 20.0174V10.8719C364.927 10.6205 364.995 10.4834 365.109 10.4376C365.314 10.3689 365.655 10.3462 365.996 10.3462C366.52 10.3462 367.522 10.4834 368.341 11.2378C369.616 12.381 369.616 13.8899 369.616 14.6445C369.616 16.9765 367.84 18.4398 366.566 18.4398C366.088 18.4398 365.928 18.5083 365.928 18.6912C365.928 18.8513 366.088 18.8742 366.201 18.8969C366.315 18.92 366.566 18.92 366.679 18.92C369.912 18.92 372.279 16.5422 372.279 13.7301C372.279 12.1523 371.687 11.2378 371.186 10.7348C370.663 10.232 369.753 9.36306 366.907 9.36306C365.86 9.36306 364.54 9.43175 363.606 9.43175C362.969 9.43175 361.535 9.36306 360.328 9.36306C359.987 9.36306 359.827 9.40863 359.827 9.56889C359.827 9.72894 359.964 9.77451 360.214 9.77451C360.533 9.77451 360.92 9.7974 361.102 9.84319C361.853 10.003 362.036 10.3689 362.081 11.1465C362.127 11.878 362.127 12.5182 362.127 15.9934V20.0174ZM377.037 20.0174C377.037 22.6922 376.992 24.0185 376.9 24.9786C376.855 25.6417 376.741 26.0533 376.286 26.1447C376.035 26.2134 375.671 26.2134 375.466 26.2363C375.239 26.2589 375.079 26.3276 375.079 26.4648C375.079 26.6019 375.216 26.6477 375.489 26.6477C376.172 26.6477 377.948 26.579 378.243 26.579C378.744 26.579 380.884 26.6933 381.886 26.6933C386.097 26.6933 387.782 23.8812 387.782 21.6863C387.782 19.9487 387.007 18.4398 385.391 17.548C384.299 16.9765 383.183 16.6565 380.566 16.6565C380.178 16.6565 380.27 16.6793 379.905 16.6793C379.837 16.6793 379.814 16.6565 379.814 16.5649C379.814 13.0668 379.814 11.8324 379.86 11.1007C379.905 10.3004 380.042 9.93478 380.657 9.84319C380.953 9.7974 381.226 9.7974 381.408 9.77451C381.635 9.75184 381.772 9.68315 381.772 9.5231C381.772 9.40863 381.681 9.36306 381.317 9.36306C380.634 9.36306 378.471 9.43175 378.312 9.43175C378.175 9.43175 376.104 9.36306 375.352 9.36306C375.011 9.36306 374.92 9.43175 374.92 9.546C374.92 9.70582 375.056 9.75184 375.284 9.77451C375.489 9.7974 375.853 9.7974 376.195 9.86609C376.696 9.95745 376.946 10.232 376.992 11.0322C377.014 11.8093 377.037 12.4268 377.037 15.9934V20.0174ZM379.814 17.7768C379.814 17.6852 379.837 17.6396 379.928 17.6396C381.521 17.5938 382.569 17.8681 383.411 18.5312C384.526 19.3999 384.936 20.909 384.936 22.4865C384.936 24.933 383.707 25.6874 382.068 25.6874C381.385 25.6874 380.953 25.619 380.361 25.3674C380.087 25.2531 379.883 24.933 379.86 24.43C379.792 23.401 379.814 21.2291 379.814 19.377V17.7768ZM391.378 20.0174C391.378 22.2351 391.378 24.0412 391.265 25.0015C391.196 25.6645 391.06 26.0533 390.605 26.1447C390.399 26.1903 390.126 26.2363 389.785 26.2363C389.512 26.2363 389.421 26.3045 389.421 26.4192C389.421 26.579 389.58 26.6477 389.876 26.6477C390.787 26.6477 392.221 26.579 392.744 26.579C393.359 26.579 394.793 26.6477 396.295 26.6477C396.546 26.6477 396.728 26.579 396.728 26.4192C396.728 26.3045 396.614 26.2363 396.364 26.2363C396.022 26.2363 395.521 26.1903 395.203 26.1447C394.52 26.0533 394.36 25.6417 394.292 25.0244C394.201 24.0412 394.201 22.2351 394.201 20.0174V15.9934C394.201 12.5182 394.201 11.878 394.247 11.1465C394.292 10.3462 394.474 9.95745 395.089 9.84319C395.362 9.7974 395.544 9.77451 395.772 9.77451C395.999 9.77451 396.136 9.72894 396.136 9.546C396.136 9.40863 395.954 9.36306 395.658 9.36306C394.793 9.36306 393.45 9.43175 392.881 9.43175C392.221 9.43175 390.787 9.36306 389.922 9.36306C389.557 9.36306 389.375 9.40863 389.375 9.546C389.375 9.72894 389.512 9.77451 389.739 9.77451C390.013 9.77451 390.308 9.7974 390.559 9.86609C391.06 9.98034 391.287 10.3689 391.333 11.1465C391.378 11.878 391.378 12.5182 391.378 15.9934V20.0174ZM234.853 26.9678C237.972 26.9678 239.406 25.7101 240.157 25.0244C242.115 26.5335 243.026 26.6477 245.621 26.6477C245.78 26.6477 247.237 26.6477 247.396 26.6477C247.897 26.6477 248.056 26.579 248.056 26.4419C248.056 26.2818 247.943 26.2589 247.738 26.2363C247.055 26.1903 246.031 25.8704 245.302 25.436C244.687 25.0702 243.663 24.4529 242.138 23.1952C243.435 21.6634 244.369 19.5373 244.369 17.7768C244.369 17.5022 244.141 17.3651 243.595 17.3195C242.32 17.2051 241.409 17.1595 240.863 17.1595C240.681 17.1595 240.453 17.205 240.453 17.388C240.453 17.5254 240.681 17.5709 240.817 17.5709C241.159 17.5938 241.591 17.6396 241.887 17.9137C242.229 18.2113 242.32 18.6228 242.32 18.9655C242.32 20.3602 241.683 21.8464 241.227 22.4865C240.795 22.0978 237.995 19.5602 237.221 18.6684C235.4 16.6336 233.442 14.8044 233.442 12.6553C233.442 10.7121 234.922 10.049 235.878 10.049C237.152 10.049 237.949 10.5292 238.404 11.0778C238.905 11.6722 239.065 12.4037 239.065 12.9983C239.065 13.3413 239.087 13.4327 239.224 13.4327C239.361 13.4327 239.452 13.3869 239.497 13.0441C239.565 12.7009 239.748 10.8719 239.748 10.1177C239.748 9.84319 239.748 9.66025 239.361 9.5231C238.746 9.27148 237.722 9.04297 236.606 9.04297C232.645 9.04297 231.052 11.4436 231.075 13.2497C231.097 14.2787 231.211 15.2389 232.167 16.5193C230.801 17.1822 228.525 19.0798 228.525 21.755C228.525 23.8812 229.982 26.9678 234.853 26.9678ZM235.718 25.5045C233.283 25.5045 231.257 23.6982 231.257 20.8405C231.257 19.0111 231.985 17.9597 232.759 17.388C234.944 19.9487 236.379 21.5492 239.27 24.2926C238.791 24.7501 237.471 25.5045 235.718 25.5045Z" fill="#F3F3F3"/>
<path d="M156.92 44.8361C156.92 46.0107 156.599 46.9594 155.958 47.6843C155.32 48.4092 154.46 48.7695 153.381 48.7717C152.32 48.7695 151.473 48.4092 150.841 47.6843C150.208 46.9594 149.894 46.0107 149.894 44.8361V44.4927H148.232V48.6394H147.487V39.5447H148.232V43.8616H149.894V43.3544C149.894 42.1861 150.208 41.2353 150.839 40.5083C151.469 39.7792 152.314 39.4146 153.375 39.4146C154.453 39.4146 155.313 39.7792 155.956 40.5083C156.599 41.2353 156.92 42.1861 156.92 43.3544V44.8361ZM156.179 43.3437C156.179 42.361 155.933 41.5699 155.436 40.9686C154.941 40.3698 154.254 40.069 153.375 40.069C152.513 40.069 151.842 40.3698 151.361 40.9686C150.879 41.5699 150.639 42.361 150.639 43.3437V44.8361C150.639 45.8275 150.881 46.6227 151.363 47.2217C151.847 47.8208 152.52 48.1215 153.381 48.1215C154.264 48.1215 154.952 47.823 155.443 47.2237C155.935 46.6269 156.179 45.8318 156.179 44.8361V43.3437ZM165.982 45.4481C165.982 46.4606 165.753 47.2664 165.297 47.8677C164.842 48.4689 164.214 48.7695 163.414 48.7717C162.945 48.7695 162.533 48.6821 162.178 48.503C161.824 48.3238 161.535 48.0679 161.312 47.7399V51.2382H160.565V41.8813H161.136L161.274 42.9365C161.497 42.5613 161.788 42.2714 162.144 42.0647C162.501 41.86 162.919 41.7555 163.401 41.7555C164.21 41.7555 164.842 42.0796 165.297 42.7276C165.753 43.3757 165.982 44.2391 165.982 45.3158V45.4481ZM165.235 45.3158C165.235 44.4587 165.065 43.7596 164.726 43.2179C164.386 42.6766 163.887 42.4057 163.233 42.4057C162.739 42.4057 162.335 42.525 162.023 42.7618C161.709 42.9983 161.474 43.3075 161.312 43.6869V46.9594C161.486 47.3262 161.732 47.614 162.051 47.825C162.371 48.0339 162.768 48.1406 163.246 48.1406C163.896 48.1406 164.39 47.8932 164.728 47.4029C165.065 46.9105 165.235 46.2603 165.235 45.4481V45.3158ZM173.886 41.8813H174.632V48.6394H173.886V43.1243L173.849 43.1114L170.255 48.6394H169.509V41.8813H170.255V47.3902L170.292 47.3964L173.886 41.8813ZM178.426 48.0084C178.753 48.0084 179.012 47.6927 179.201 47.0617C179.39 46.4306 179.513 45.5183 179.57 44.3242L179.715 41.8813H183.75V48.0084H184.384V50.8374H183.638V48.6394H178.558V50.8374H177.849V48.0084H178.426ZM180.318 44.3242C180.267 45.2156 180.184 45.966 180.069 46.5777C179.953 47.1897 179.783 47.6672 179.558 48.0084H183.003V42.5804H180.417L180.318 44.3242ZM192.146 41.8813H192.893V48.6394H192.146V43.1243L192.109 43.1114L188.516 48.6394H187.769V41.8813H188.516V47.3902L188.552 47.3964L192.146 41.8813ZM201.743 48.6394H200.995V45.7975C200.711 45.902 200.418 45.9829 200.117 46.0449C199.815 46.1045 199.525 46.1345 199.242 46.1345C198.372 46.1345 197.725 45.9405 197.302 45.5501C196.88 45.1622 196.667 44.5076 196.667 43.5931V41.8813H197.415V43.5931C197.415 44.3009 197.559 44.7935 197.848 45.0727C198.134 45.3518 198.601 45.4906 199.242 45.4906C199.537 45.4863 199.839 45.4565 200.144 45.399C200.452 45.3392 200.734 45.2625 200.995 45.1665V41.8813H201.743V48.6394ZM208.124 48.7717C207.254 48.7695 206.547 48.4603 206.004 47.8421C205.46 47.2237 205.189 46.4306 205.189 45.4608V45.1176C205.189 44.1433 205.464 43.3395 206.012 42.7064C206.562 42.0731 207.243 41.7555 208.056 41.7555C208.873 41.7555 209.504 42.0198 209.95 42.5464C210.395 43.073 210.618 43.783 210.618 44.6741V45.254H205.935V45.4608C205.935 46.2305 206.129 46.8701 206.517 47.3773C206.904 47.8846 207.441 48.1406 208.124 48.1406C208.534 48.1406 208.912 48.0724 209.255 47.9359C209.599 47.8016 209.886 47.6183 210.113 47.3902L210.431 47.9017C210.196 48.1513 209.886 48.3602 209.502 48.5243C209.118 48.6883 208.659 48.7695 208.124 48.7717ZM208.056 42.3928C207.483 42.3928 207.014 42.5997 206.645 43.0112C206.275 43.4246 206.059 43.9472 205.997 44.5803L206.016 44.6165H209.871V44.4609C209.871 43.8616 209.716 43.3673 209.402 42.977C209.09 42.5891 208.64 42.3928 208.056 42.3928ZM216.439 48.1406C216.917 48.1406 217.337 47.9977 217.704 47.7143C218.071 47.4327 218.256 47.0383 218.256 46.5353H218.92L218.933 46.5715C218.95 47.1961 218.704 47.7185 218.199 48.1406C217.693 48.5607 217.108 48.7695 216.439 48.7717C215.543 48.7695 214.847 48.4538 214.346 47.8208C213.847 47.1877 213.597 46.3775 213.597 45.3927V45.128C213.597 44.1475 213.845 43.3395 214.344 42.7064C214.841 42.0731 215.537 41.7555 216.432 41.7555C217.154 41.7555 217.755 41.9749 218.237 42.4121C218.716 42.8491 218.95 43.4246 218.933 44.1368L218.92 44.1731H218.256C218.256 43.6316 218.08 43.2008 217.728 42.8769C217.373 42.5548 216.942 42.3928 216.432 42.3928C215.728 42.3928 215.204 42.6529 214.86 43.1732C214.516 43.6954 214.344 44.3458 214.344 45.128V45.3927C214.344 46.1876 214.516 46.8443 214.86 47.3624C215.204 47.8803 215.73 48.1406 216.439 48.1406ZM224.013 45.5417H223.162V48.6394H222.41V41.8813H223.162V44.8788H223.996L226.651 41.8813H227.547L227.558 41.9133L224.661 45.16L227.864 48.6012L227.845 48.6394H226.919L224.013 45.5417ZM235.332 41.8813H236.079V48.6394H235.332V43.1243L235.295 43.1114L231.702 48.6394H230.955V41.8813H231.702V47.3902L231.738 47.3964L235.332 41.8813ZM244.275 41.8813H245.022V48.6394H244.275V43.1243L244.239 43.1114L240.645 48.6394H239.898V41.8813H240.645V47.3902L240.681 47.3964L244.275 41.8813ZM244.183 39.1992L244.196 39.2377C244.213 39.7045 244.063 40.0819 243.742 40.374C243.424 40.6661 242.989 40.811 242.437 40.811C241.885 40.811 241.449 40.6639 241.127 40.372C240.806 40.0777 240.656 39.7003 240.677 39.2377L240.689 39.1992H241.273C241.273 39.5213 241.367 39.7792 241.554 39.9754C241.741 40.1695 242.036 40.2673 242.437 40.2673C242.827 40.2673 243.118 40.1673 243.311 39.969C243.502 39.7685 243.6 39.5126 243.6 39.1992H244.183ZM253.566 45.5417H252.715V48.6394H251.964V41.8813H252.715V44.8788H253.549L256.205 41.8813H257.101L257.111 41.9133L254.214 45.16L257.417 48.6012L257.398 48.6394H256.472L253.566 45.5417ZM259.963 45.16C259.963 44.1646 260.234 43.3502 260.776 42.7127C261.319 42.0754 262.039 41.7555 262.934 41.7555C263.834 41.7555 264.556 42.0754 265.099 42.7127C265.641 43.3502 265.912 44.1646 265.912 45.16V45.3667C265.912 46.3668 265.643 47.1832 265.101 47.8185C264.56 48.4538 263.843 48.7695 262.947 48.7717C262.043 48.7695 261.319 48.4538 260.776 47.8185C260.234 47.1832 259.963 46.3668 259.963 45.3667V45.16ZM260.708 45.3667C260.708 46.1494 260.905 46.808 261.298 47.3411C261.692 47.8741 262.242 48.1406 262.947 48.1406C263.639 48.1406 264.182 47.8741 264.579 47.3411C264.974 46.808 265.174 46.1494 265.174 45.3667V45.16C265.174 44.3907 264.974 43.7361 264.575 43.1988C264.178 42.6613 263.63 42.3928 262.934 42.3928C262.238 42.3928 261.692 42.6613 261.298 43.1988C260.905 43.7361 260.708 44.3907 260.708 45.16V45.3667ZM274.44 48.6394H273.692V45.5417H270.069V48.6394H269.322V41.8813H270.069V44.9106H273.692V41.8813H274.44V48.6394ZM280.727 48.1406C281.205 48.1406 281.625 47.9977 281.993 47.7143C282.36 47.4327 282.544 47.0383 282.544 46.5353H283.209L283.222 46.5715C283.239 47.1961 282.992 47.7185 282.487 48.1406C281.982 48.5607 281.396 48.7695 280.727 48.7717C279.832 48.7695 279.136 48.4538 278.634 47.8208C278.136 47.1877 277.885 46.3775 277.885 45.3927V45.128C277.885 44.1475 278.134 43.3395 278.632 42.7064C279.129 42.0731 279.825 41.7555 280.721 41.7555C281.443 41.7555 282.043 41.9749 282.525 42.4121C283.005 42.8491 283.239 43.4246 283.222 44.1368L283.209 44.1731H282.544C282.544 43.6316 282.368 43.2008 282.016 42.8769C281.661 42.5548 281.231 42.3928 280.721 42.3928C280.016 42.3928 279.492 42.6529 279.148 43.1732C278.804 43.6954 278.632 44.3458 278.632 45.128V45.3927C278.632 46.1876 278.804 46.8443 279.148 47.3624C279.492 47.8803 280.018 48.1406 280.727 48.1406ZM290.934 48.6394C290.887 48.4029 290.853 48.1982 290.83 48.0275C290.809 47.857 290.796 47.6821 290.796 47.5031C290.564 47.8697 290.24 48.1726 289.819 48.4114C289.401 48.6501 288.921 48.7695 288.378 48.7717C287.718 48.7695 287.206 48.5948 286.843 48.2429C286.482 47.891 286.3 47.4135 286.3 46.8103C286.3 46.2048 286.563 45.7166 287.09 45.3414C287.616 44.966 288.302 44.7786 289.142 44.7786H290.796V43.943C290.796 43.4589 290.643 43.0814 290.339 42.8065C290.034 42.5315 289.605 42.3928 289.049 42.3928C288.539 42.3928 288.128 42.5188 287.815 42.7682C287.501 43.0174 287.344 43.3331 287.344 43.7103H286.654L286.642 43.674C286.618 43.1668 286.835 42.7191 287.291 42.3332C287.75 41.9493 288.348 41.7555 289.087 41.7555C289.823 41.7555 290.418 41.9451 290.866 42.3248C291.311 42.7042 291.536 43.2477 291.536 43.9557V47.2773C291.536 47.516 291.549 47.7463 291.577 47.9721C291.604 48.196 291.649 48.4178 291.711 48.6394H290.934ZM288.459 48.1084C289.03 48.1084 289.526 47.9721 289.944 47.6994C290.363 47.4264 290.647 47.0768 290.796 46.646V45.3541H289.136C288.531 45.3541 288.032 45.4992 287.637 45.7889C287.242 46.0769 287.047 46.4264 287.047 46.8336C287.047 47.2175 287.172 47.5267 287.423 47.759C287.673 47.9913 288.019 48.1084 288.459 48.1084ZM300.499 41.8813V48.6394H299.752V42.525H296.899V44.8659C296.899 46.1961 296.744 47.1557 296.438 47.7505C296.13 48.3431 295.613 48.6394 294.882 48.6394H294.611L294.621 47.9701L294.859 47.9659C295.315 47.9659 295.644 47.7356 295.85 47.2748C296.056 46.8145 296.158 46.0127 296.158 44.8659V41.8813H300.499ZM309.256 42.5188H306.806V48.6394H306.059V42.5188H303.703V41.8813H309.256V42.5188ZM316.917 41.8813H317.664V48.6394H316.917V43.1243L316.88 43.1114L313.287 48.6394H312.54V41.8813H313.287V47.3902L313.323 47.3964L316.917 41.8813ZM326.601 48.6394H325.854V45.5417H322.23V48.6394H321.483V41.8813H322.23V44.9106H325.854V41.8813H326.601V48.6394ZM334.58 42.525H331.173V48.6394H330.426V41.8813H334.58V42.525Z" fill="#F3F3F3"/>
<path d="M407.102 2.67969C408.261 2.67969 409.391 2.97777 410.497 3.57683C411.6 4.17278 412.461 5.02924 413.077 6.13955C413.692 7.2532 414.001 8.41375 414.001 9.61809C414.001 10.8133 413.698 11.9643 413.089 13.0653C412.483 14.1696 411.634 15.0258 410.538 15.6345C409.441 16.246 408.295 16.5503 407.102 16.5503C405.906 16.5503 404.76 16.246 403.664 15.6345C402.567 15.0258 401.715 14.1696 401.106 13.0653C400.497 11.9643 400.191 10.8133 400.191 9.61809C400.191 8.41375 400.5 7.2532 401.118 6.13955C401.74 5.02924 402.602 4.17278 403.704 3.57683C404.81 2.97777 405.94 2.67969 407.102 2.67969ZM407.102 3.82779C406.131 3.82779 405.185 4.07875 404.267 4.57756C403.348 5.07614 402.63 5.79145 402.112 6.71994C401.593 7.64842 401.334 8.61447 401.334 9.61809C401.334 10.6188 401.59 11.5755 402.099 12.4913C402.608 13.4074 403.32 14.1225 404.235 14.6337C405.15 15.145 406.106 15.4022 407.102 15.4022C408.095 15.4022 409.051 15.145 409.966 14.6337C410.881 14.1225 411.593 13.4074 412.099 12.4913C412.605 11.5755 412.858 10.6188 412.858 9.61809C412.858 8.61447 412.599 7.64842 412.084 6.71994C411.568 5.79145 410.85 5.07614 409.929 4.57756C409.007 4.07875 408.064 3.82779 407.102 3.82779ZM409.316 10.7348L410.441 11.0736C410.257 11.8389 409.869 12.4538 409.276 12.9086C408.679 13.3665 407.958 13.5954 407.112 13.5954C406.037 13.5954 405.166 13.2473 404.494 12.5478C403.823 11.8483 403.489 10.8822 403.489 9.64321C403.489 8.83409 403.642 8.13145 403.948 7.5355C404.251 6.93622 404.688 6.48765 405.25 6.18356C405.816 5.87926 406.462 5.72855 407.187 5.72855C407.999 5.72855 408.673 5.92305 409.21 6.31516C409.748 6.70727 410.113 7.24053 410.31 7.91183L409.223 8.19413C409.039 7.73311 408.77 7.37857 408.411 7.13383C408.052 6.88599 407.633 6.76373 407.149 6.76373C406.446 6.76373 405.866 7.01469 405.409 7.51661C404.954 8.01853 404.726 8.73984 404.726 9.67455C404.726 10.6126 404.941 11.3215 405.372 11.8014C405.803 12.2813 406.359 12.5227 407.043 12.5227C407.593 12.5227 408.077 12.3629 408.492 12.0397C408.907 11.7198 409.182 11.2837 409.316 10.7348Z" fill="#F3F3F3"/>
</svg>
